<?xml version="1.0" encoding="UTF-8"?>
<svg id="Layer_1" data-name="Layer 1" xmlns="http://www.w3.org/2000/svg" viewBox="0 0 792 612">
  <path d="M2.16,0l137.501,131.381c-.291-2.814-3.196-5.157-2.852-8.061.334-2.82,3.535-4.543,5.015-6.694-.406-.059-.852.308-1.214.259-1.574-.214-12.023-11.563-14.024-13.46C92.606,71.21,58.148,39.011,24.288,6.489c-2.165-2.08-4.295-4.247-6.29-6.489h2.52l117.703,112.303c-.531-1.109-1.845-4.412-2.493-5.152-1.087-1.24-3.789-3.088-5.422-4.926.233.034.736.126.718-.178-.934-.82-1.699-1.78-2.518-2.701,1.491.216,3.524,3.374,4.872,4.31.633.244,1.414-1.696,1.202-2.106L28.077,0h1.44l106.008,101.499c1.042-1.554,4.698-3.995,5.421-5.396.218-.421.172-.598-.18-.908L41.395,0h.72l99.889,95.379,11.721-11.321.179-.907L66.952,0h1.08l86.57,82.782c.762-.783,6.06-5.074,5.771-5.753L79.911,0h1.08l80.083,76.581,1.276-1.352c.318-.234,2.066,2.054,2.238,2.622.842,2.78,1.203,4.165,2.852,6.857,1.027,1.677,3.187,2.685,2.104,5.278l6.248-5.737.057-.75-40.863-39.048.717-.356-6.106-11.436-13.512-12.861c-.272-.056-.231.347-.173.531.603,1.924,4.219,8.565,5.453,10.387.483.714,1.154,1.242,1.739,1.86l-.533.175L88.55,0h1.08l29.338,28.074c.541-.281-.103-.868-.242-1.198-1.042-2.469-2.516-4.961-3.806-7.316-.245-1.465,2.646-3.909,4.22-3.178.979.455,6.542,6.653,7.025,6.647.618-1.899,1.09-1.1,2.178-1.769,1.162-.714,4.124-4.167,5.399-5.403,2.663-2.58,5.825-5.704,8.623-8.297,1.438-1.332,3.415-3.856,5.681-3.172.403.121,5.623,5.101,6.161,5.725.657.761,2.032,3.092,2.001,4.067-.035,1.109-.953,1.734-1.062,2.737,1.223-.827,2.471-1.796,4.055-1.37l51.018,48.365h.714c2.786-2.208,9.038-10.518,12.429-10.665.725-.031,1.379.15,1.971.567.803.892.12.428-.402.391-1.822-.128-2.272-.178-3.549,1.407l26.14,24.979,3.035-1.595-.027-.884,1.076.542,13.495,25.38,151.566,144.315c1.246.576,1.233,2.988,1.685,3.532.257.309,2,.508,2.785.997,2.559,1.592,8.884,8.114,11.362,10.595,1.887,1.889,3.09,2.904,2.603,5.864-.19,1.157-1.791,3.292-1.286,4.158l92.798,88.449c.592.271,1.755-1.758,4.1-.512,1.051.559,1.01,1.73,2.744,1.031-2.141-4.085-5.131-6.714-.699-10.592,1.481-1.296,1.732-.064,1.597-3.074l13.661-13.345c.844-.733,1.803-.134,2.716.021.165-1.839,2.249-3.477,4.112-3.234,2.586.338,8.808,8.241,11.192,10.071.329.882-.457.229-.727.005-1.198-.996-4.33-4.838-5.229-5.239-.552-.247-2.087.005-1.781.729l10.082,9.737.819.127.967-.859-2.152-2.161c-.057-.267.376-.245.533-.175.221.099,3.113,2.761,3.614,3.227,1.193,1.11,2.384,2.339,3.41,3.605-1.771-.582-2.901-2.654-4.33-3.794l-1.782.738,5.257,4.835c.779.131.915-.976,1.334-1.297,2.099-1.607,4.01-3.878,5.817-5.161,3.324-2.36,3.664-.003,5.749,1.455.576.403,1.164.484,1.994,1.067-.765-.342-3.744.762-3.617,1.611.118.79,3.653,4.255,4.465,4.092l2.746-1.923-3.593-3.78c.198.139.645.165,1.089.514,1.869,1.466,3.405,4.056,5.387,5.25l-2.854,1.276-.581,1.237,40.406,38.478c.973.254,2.001-1.752,3.347-1.405l-1.08-1.793c.375-.372,1.913,1.295,2.159,1.617,1.53,1.999,7.055,12.472,7.835,14.84.523,1.587.521,2.345-.26,3.893s-7.874,8.467-9.554,9.883c-.404.34-.586.873-1.261.715,1.511-2.496,10.53-9.462,10.717-11.755l-8.011-15.147c-.763-.059-5.372,4.254-6.31,5.123-5.873,5.439-18.365,19.942-24.365,23.149-4.638,2.479-3.474-3.491-6.396-5.339-6.938,5.137-12.485,12.053-19.099,17.641-1.147,1.272-4.1,3.607-3.716,5.504.155.766,1.617,2.649,2.052,3.737,1.117,2.794.804,3.671-1.035,6.057-13.944,13.387-27.477,27.273-41.557,40.512-1.619,1.522-4.374,4.386-5.98,5.539-1.061.762-2.11,1.239-3.39,1.505-2.073-.066-2.613-6.976-5.12-5.703l-20.974,20.068c-3.033,3.696,3.076,6.056,1.343,10.344-1.399,3.463-15.494,16.14-19.153,19.719-1.822,1.782-10.694,9.489-11.201,11.137-.155.506-.231.957.008,1.455,1.402,1.832,6.34,13.563,7.4,14.235,1.626,1.031,3.78-3.285,5.403-3.436-1.6,1.998-4.936,5.846-7.742,3.96l-17.094-16.384c.36-.585.796.12,1.081.359,5.028,4.215,9.666,9.959,14.752,14.221l-6.175-12.359c-2.142-2.236-4.279-4.486-6.42-6.718.068.055.558.11.903.34,1.196.797,3.748,4.324,4.681,4.696.624.249,1.644-2.99,2.432-3.344l.101-.962-40.4-38.471c-.987-.369-2.733,2.833-2.644,3.713.058.58,3.273,3.752,3.97,4.513-.707-.493-1.751-.798-2.341-1.798-.272-.056-.231.347-.173.531,1.167,3.728,4.923,8.201,6.307,12.053l23.563,22.511-.533.175c-7.505-7.74-15.702-14.789-23.388-22.336-3.044-2.989-5.121-5.522-7.865-8.867-1.57-1.914-4.43-3.527-5.949-5.748-.754-1.103-4.887-9.134-5.028-10.114-.373-2.604,2.491-3.878,3.882-5.664-.928-.823-1.696-1.779-2.513-2.7.092.068.551.111.903.34.66.431,1.397,2.099,2.334,1.642-1.703-2.162-2.481-5.194-3.957-7.381.813.087,1.559-1.267,1.403-1.906-.086-.354-1.85-2.001-2.294-2.423-2.643-2.511-5.483-4.834-7.954-7.535-.686-.154-1.343,1.276-1.186,1.89.682.829,1.416,1.596,2.111,2.415-.278-.109-1.326-.682-1.076.174,2.288,5.586,5.91,8.497,9.715,12.784-4.031-2.975-8.278-7.037-11.159-11.158.317.213.71.106,1.278.695.711.738.885,1.918,1.784,2.542.271.056.232-.35.173-.531-.118-.364-3.351-6.457-3.585-6.759-.576-.744-2.123-1.039-2.886-1.706.505,2.255,1.978,3.959,3.236,5.759-1.995-1.338-3.347-3.912-4.382-6.235-1.414-3.175.268-6.501,3.661-7.087.111-.105-1.207-1.285-.378-2.62l14.07-13.405,2.141.552c.139-1.38,2.166-3.483,3.462-3.603,1.721-.159,2.248,1.49,3.741,1.801-.225-2.435,2.11-3.466,3.595-4.858L174.089,206.275l-1.668,1.051,1.052-1.565-1.284-1.273c-1.745.878-3.909,2.502-5.895,1.229-1.961-1.997,2.956-9.626,5.047-10.626-.517,1.606-2.496,2.805-3.154,4.504l267.904,255.39,1.973-1.632c-.57-.783-1.906-.474-2.522-1.068-1.504-1.449,2.607-4.548,3.967-4.689l-94.829-90.547c-.675-.475-1.542-.277-2.257-.623-1.278-.617-12.864-11.488-13.783-12.853-1.551-2.303-.585-2.966-4.292-3.987l-152.106-144.841c-.342-.032-.618.211-.901.347.67-2.083-.287-1.548-1.445-2.694-3.445-3.411-6.862-6.83-10.446-10.098-1.057-.477-3.706,1.697-5.229.214-.947-1.461.57-3.668.552-4.523-.015-.706-1.35-1.667-1.072-2.696-.548-.146-.598.147-.902.355-1.004.687-7.001,6.884-7.351,7.801-.145.381-.398.663-.118,1.088l16.297,31.79c1.145.85,7.964-6.9,9.173-7.92.404-.34.586-.873,1.261-.715-2.506,2.299-8.343,10.22-11.967,9.273-1.988-.519-5.916-5.919-7.829-7.299.36-.585.796.12,1.081.359,1.565,1.312,2.94,3.14,4.498,4.5l.173-.531c-5.916-8.912-9.871-22.143-16.193-30.423.278.041.808.086,1.011-.06l2.064-3.906-25.982-24.803c-.987-.173-2.442,2.916-2.643,3.762.011.514,1.661,2.11,2.153,2.689-.48-.069-.895-.126-.703.52.092.31,2.252,4.187,2.563,4.64,1.561,2.281,4.63,4.34,6.419,6.54l-.717.356c.112.298,4.213,4.368,4.503,4.498.157.07.59.092.533-.175l-3.956-3.963c-.057-.267.376-.245.533-.175.418.187,5.985,5.829,6.461,6.499.391.55,2.607,4.747,2.713,5.208.227.984-1.255.275-1.069.706.41.6,1.084,1.125,1.71.453.818-.88-.278-1.779.629-2.424,2.309,1.824,4.499,3.888,5.939,6.469l-1.797.179c.73.666,6.452,6.354,5.755,7.022-.326.312-2.219-1.203-2.151-.178.026.386,4.011,3.406,4.318,5.035.102.539-.01.637-.541.541l-.904-.563-1.414,1.777,4.652,4.73c-.36.585-.796-.12-1.081-.359-1.44-1.207-2.695-2.889-4.137-4.131-1.713,2.589-3.683.269-5.028-1.464-1.221-1.573-.493-.979-2.175-2.501-1.632-1.477-3.515-2.985-3.054-5.407l-7.194-.184c-1.677-2.145-6.36-4.976-7.523-7.235-.632-1.229-.869-2.014-1.641-3.399-1.135-2.036-.487-3.385-.594-3.54-.176-.254-1.64-.893-2.359-2.146-.621-1.082-.611-2.057-1.053-2.906-.498-.956-1.563-1.103-1.624-2.735-.084-2.257,4.269-4.386,5.078-6.481-1.684-4.765-6.557-8.873-1.096-13.305l-32.191-30.792c-2.183-3.43,3.899-7.089,3.734-8.033l-15.299-14.617c-.389-.285-.367-.739-.514-1.09l50.934,48.226,7.581-7.555-50.243-48.768c-2.833-1.311-8.61,5.158-8.271,8.096-.013-.031-.357.011-.392-.541-.195-3.075,5.733-9.505,8.76-8.018l50.845,48.507,3.771-3.414-4.671-4.856c1.965.754,3.232,3.019,4.87,4.308.416.159,1.378-1.355,1.558-1.684.146-.267.438-.508.245-.833l-43.931-42.106.542,1.434c-.877.635-3.543-2.659-3.963-3.422l.722-.352-7.02-6.66-.713.716c-1.444-1.292-3.188-2.386-3.032-4.509L8.45,7.568,1.08,0h1.08ZM144.346,6.126c-.142.524.142.599.35.901.442.644,4.871,4.934,5.4,5.077l3.241-1.845c-1.302-1.005-4.985-5.793-6.473-5.438-.81.193-1.597,1.217-2.517,1.305ZM143.493,7.225l-17.167,16.366c-1.878.634-5.268-7.566-7.557-3.631-.205.353-.477.54-.322,1.05l11.678,10.677,19.611-18.91-6.243-5.553ZM152.028,15.347c.359.306,1.931,1.638,2.208,1.572,2.208-1.876,1.29-6.774-2.108-4.993l-21.405,20.701c.968,2.343,7.545,15.954,9.482,15.955l1.099-1.08-5.781-11.837c-.231-1.125.977-1.113.901-1.288l-1.26-1.26.181,1.075c-.787.643-3.128-3.655-.72-3.593-.63.816,1.831,2.887,2.34,2.889l.737-.351,15.303-14.949c.894-1.096-1.428-2.171-2.001-3.064-5.172,4.335-9.857,10.316-14.935,14.574-.285.239-.721.944-1.081.359l16.372-15.661c.265.069.421.738.67.95ZM157.928,15.89c-2.107.429-6.975,5.499-6.756,7.673l49.677,47.893,1.455.728c1.8-2.414,5.609-4.867,7.215-7.202.219-.318.515-.488.18-.908l-50.604-48.061c-.374-.242-.752-.207-1.165-.122ZM117.936,16.584l-2.023,1.954,1.663,1.594,2.284-1.954-1.924-1.594ZM151.181,21.599c-.623-.162-.72.256-1.081.535-2.087,1.615-4.192,4.409-6.117,6.298l6.51-3.745.688-3.088ZM140.39,34.194l12.945-7.378-1.328-1.212c-1.098-.288-10.335,6.046-12.191,6.782l.574,1.808ZM136.428,35.635l5.587,11.13-1.26,2.007,35.628,34.217h.714s11.003-10.644,11.003-10.644c.334-.419.04-.589-.179-.907-.593-.862-2.551-2.565-3.432-3.418-7.008-6.783-14.349-13.243-21.228-20.164-2.188-3.415,3.899-7.094,3.735-8.033l-12.943-12.306-1.201.234c-3.604,2.335-7.508,4.23-11.137,6.514-2.057,1.294-3.136,3.762-5.286,1.37ZM138.232,35.992c.451.317,1.534-.889,1.734-1.309-.429-2.094-1.384-1.843-2.425-.258l.69,1.567ZM205.897,80.268c-.114-.147-.597-.245-.714-.538l2.873-2.698c-1.712-.329-2.239,1.261-3.415,2.068l-6.663-6.213c.771-.646,1.451,1.133,1.973,1.174.259.02,1.724-.847,1.456-1.352l-33.559-31.997c-1.293-.338-5.674,5.136-4.239,6.772l24.453,23.447c1.158.994,1.695-.52,2.595-1.042,2.45-1.418,4.358-1.001,5.88,1.377-1.142.124-1.633-1.743-2.629-1.728-.575.008-3.371,1.537-2.958,2.095l26.099,24.669c.42.19,3.292-1.598,3.424-2.354,1.576.602,3.936,6.934,4.737,7.168.791.058,3.387-1.059,2.843-2.128l-10.102-9.266-.889.805,2.872,2.881c.057.267-.376.245-.533.175-1.287-.575-4.101-4.614-5.582-5.578,1.097-.538,2.112,2.112,3.009,1.955l1.568-1.588c-.714-2.073-2.624-3.304-4.038-4.859l-2.157,2.871c-.964-.26-5.456-5.033-6.302-6.117l5.579,5.033,2.254-2.329c.067-.912-3.933-4.936-4.849-5.182-.704-.189-3.311,2.03-2.985,2.479ZM230.134,77.267c1.669,2.017,5.707,5.534,7.81,7.489,1.042.968,1.255,1.801,3.058,2.254l5.903-5.793-26.12-25.04-18.102,17.481,3.084,3.334c2.35-1.809,3.04.525,5.168.754-2.801-7.562,5.945-13.296,12.737-10.033,5.179,2.488,3.769,6.297,6.463,9.554ZM225.567,69.597c-5.274-4.938-14.365-1.612-14.813,5.649l8.641,8.614c1.141-.757.797-2.467,1.294-3.346,1.098-1.941,5.134-5.256,7.526-5.288-.219-2.004-1.18-4.255-2.648-5.63ZM190.306,72.037l-49.915,48.005,26.163,24.978,50.135-48.015-26.383-24.969ZM201.753,74.224l-.89.825,3.768,3.418c1.955-.961-2.59-4.255-2.878-4.242ZM220.655,85.667c2.413,1.386,5.409,5.6,7.735,7.204.305.21.355.503.903.354.484-3.846,4.33-7.288,7.919-8.455l-7.925-7.558c-1.721-.798-2.817.914-4.312,1.254.917-1.129,2.511-2.035,3.957-2.16-.297-.815-2.218-.286-2.777-.075-1.122.423-5.471,4.251-4.963,5.48.513,1.244,1.072-1.715,1.259-.187-.896,1.061-1.957,2.73-1.796,4.145-.341-.196-3.114-1.204-3.238-1.078.136,1.896,2.068,2.499,1.272,4.698l10.065,9.692c1.199-1.285,3.097-2.16,1.647-4.077-.273-.36-.946-.279-1.282-.584-1.368-1.242-2.815-2.52-4.149-3.785-.959-.91-4.2-3.856-4.314-4.864ZM163.386,76.699c-.894-.213-1.495.385-2.131.863-4.969,3.725-11.2,11.426-16.002,16.034-1.097,1.053-2.694,2.008-3.794,3.045-1.214,1.144-6.816,6.41-6.808,7.561.011,1.574,1.51,2.067,2.209,3.168,1.696,2.674,2.696,5.832,3.878,8.74.576.353,1.202-.262,1.624-.572.687-.506,5.489-4.887,5.556-5.264-.943-2.052-3.989-2.852-4.65-5.169l5.576,5.033,17.092-16.371-6.113-6.295,5.989,5.01c.367.064,3.018-2.485,3.189-2.861.963-2.111-.87-2.391-1.568-3.46-.732-1.121-3.01-5.228-3.386-6.368-.293-.89.097-2.102-.659-3.091ZM217.049,84.588c1.942-2.783-2.89-4.872-4.321-7.046l-1.79.573c-.135.55.085.575.38.871,1.875,1.875,3.932,3.638,5.731,5.602ZM251.581,80.594l-.145-1.042c-.481.385-3.322,1.179-3.06,1.97.448,1.354,2.401-1.289,3.205-.928ZM260.969,99.703l-9.572-18.333c-.842-.197-4.626,3.286-5.192,4.109-.208.303-.492.377-.35.901.815.158,1.552.729,2.162,1.263,3.935,3.448,7.762,8.087,11.694,11.342.405.336.582.873,1.259.717ZM243.692,86.024c.972.679,4.66-3.116,4.672-3.416.007-.17-.751-.851-1.078-.367l-3.594,3.782ZM237.573,86.031c-2.601-.296-6.972,4.248-7.42,6.462-.136.669-.23.994.403,1.452.709-2.392,2.385-4.556,4.327-6.108.906-.725,2.025-.949,2.691-1.805ZM239.011,86.751c-3.907.536-7.503,4.372-7.913,8.274l3.226-4.868,4.688-3.406ZM244.05,86.751c-6.13,1.437-11.517,7.604-12.953,13.673l2.226-4.068c1.914-2.758,4.142-5.185,6.8-7.238l3.927-2.366ZM240.453,87.111c-3.981.98-8.076,4.862-8.635,8.995,2.427-3.606,5.289-6.269,8.635-8.995ZM415.389,248.723c.147-.542-.129-.595-.351-.904-1.035-1.44-3.803-3.854-5.215-5.224-53.666-52.041-108.751-102.651-162.351-154.767-2.918-2.169-8.383,2.541-10.448,4.67-1.785,1.84-6.736,8.226-4.743,10.704l168.534,160.637c.835-5.845,8.192-13.848,13.825-15.274.283-.072.487.143.748.158ZM221.373,95.388c-.324-.345-3.418,1.02-3.236,1.973.245,1.287,2.227-1.337,2.995-.888l.241-1.084ZM246.572,122.742c.698-1.117,1.367-1.889,2.134-3.01l-12.223-11.941c-1.358-.572-6.187,3.58-5.37-2.487.087-.647.67-1.211.625-1.758-.058-.707-1.227-1.757-1.008-2.759-.314-.317-3.674,3.562-5.873,2.835-1.006-.333-2.398-5.223-3.301-6.08-1.105-1.048-3.879,1.823-4.865,2.7-14.363,12.763-29.208,27.988-43.02,41.569-1.31,1.288-6.997,6.631-7.296,7.842-.445,1.808,2.782,5.292,3.105,7.196.224,1.32-.686,2.661-1.379,3.685.828-.044,1.339.275,1.982.722,3.254,2.262,6.831,6.782,9.891,9.546.899.812,1.994,1.495,2.881,2.334l-5.967-11.863c-.091-.579,1.997-2.5,2.37-2.171l-.944,1.805c3.607,4.159,7.96,7.691,11.933,11.5,22.843,21.907,45.614,43.904,68.558,65.705,1.635,1.554,5.136,5.258,6.657,6.302.302.208.374.494.901.35l1.422-2.289c-9.968-10.077-20.513-19.583-30.761-29.375-17.723-16.933-35.181-34.204-53.079-50.947-1.223-1.144-2.938-2.638-4.325-3.421l1.98-2.146c.362.004,2.742,5.168,3.413,5.939,3.029,3.479,7.994,7.115,11.399,10.378,1.169,1.12,2.191,2.964,3.722,3.833.156-1.836.006-5.13,2.186-5.629l3.573-6.969c-2.901,2.239-5.126,5.405-7.913,7.742-.285.239-.721.944-1.081.359,2.265-2.981,7.009-6.072,9.01-8.988.378-.551,3.348-5.6,3.442-5.948.329-1.219-.869-2.936.505-4.319l-7.541,5.234c-1.2.879-3.195.566-4.328,1.071-.831.371-5.505,6.203-6.847,4.85-.622-3.632,4.08-5.451,5.55-7.946.619-1.051.836-2.702,1.453-3.946,2.109-4.252,8.637-11.098,13.053-12.864,1.334-.533,3.105-.572,4.051-.989.439-.193,6.482-7.25,7.188-4.284-.28,3.156-4.723,5.164-5.894,7.377-.389.735-.444,1.836-.861,2.738-1.402,3.028-3.189,3.443.784,5.846,1.386-.972,2.609-2.286,4.021-3.206,2.833-1.846,5.424-2.742,8.09-5.043-.726,1.02-1.652,1.811-2.518,2.701.44.542,1.183-.469,1.779-.741,1.164-.532,2.471-.88,3.589-1.45.788-.402,1.138-1.62,2.549-1.232.3-.264-.83-1.473-1.079-1.798.925.521,1.63.807,2.341,1.798l-.18-1.436c4.307.08,5.835,4.589,8.46,7.195l.713-.716c.702.244,1.81,2.613,2.703,1.979-.951-1.409-4.422-3.761-4.972-5.107-.095-.233-.228-.808.109-.829,4.366.742,5.899,5.145,8.821,7.913l-.384-1.24.746-.377-10.982-10.617-.176,1.074c-2.545.342-4.039-1.573-5.584-3.232-.676-.726-1.933-2.871-2.498-3.285-.48-.352-1.039.133-1.616-.127-.963-.435-2.875-3.389-3.805-3.789-.44-.189-.677.08-.53.53l1.079,2.344.891-.714c1.82,1.913,9.602,8.045,1.628,4.676l.376,1.427.643-.292c.481,1.146,1.459,1.835,2.217,2.824-.526-.296-1.211-.308-1.62-1.073-.84,1.606-1.333,2.413-2.7,3.593.374-.525,1.762-2.869,1.718-3.361l-9.855-18.955c-.293-1.168.895-1.444,1.658-1.8-.364.772-.498,1.317.111,2.056l87.179,82.886,1.953-2.284-87.681-83.316c-.518.197-1.061.425-1.561.658.29-.616,2.573-3.159,3.25-2.713.453.298,2.089,4.01,2.711,4.85l17.076,16.426,1.439-.563-.696,1.209,66.387,63.1c5.13-4.507,7.901,1.625,11.341,4.794-.675.157-.857-.375-1.261-.715-1.048-.883-4.763-5.154-5.479-5.347-1.6-.433-4.67,1.96-5.853,3.007l32.384,30.97c.529.241,4.41-3.286,5.765-3.078.05-.066-1.954-2.43-.354-1.261,1.357.992,5.134,7.244,5.345,8.733.199,1.408-2.438,2.349-2.463,3.501.411,2.392,5.075,7.86,4.13,9.901-.251.542-1.506,1.192-1.591,1.677l.312.681,138.115,131.525c1.513-.858,2.384-2.444,4.457-1.6l-1.799,1.085,5.216,4.798.752-1.037-2.375-2.858c1.71.721,2.29-1.513,3.42-2.521.729-.651,2.611-1.821,3.562-1.787,1.337.803,3.489.87,4.672,1.47,2.302,1.167,5.102,6.098,7.788,7.33.728.334,2.119.32,2.872.008L251.071,131.747c-.438,0-3.023,3.711-4.139,3.589.839-1.851,5.432-3.596,2.344-5.295-4.894,2.909-8.087,2.25-5.29-3.946.674-1.494,1.528-2.272,2.585-3.354-.246.393-1.393,2.264-1.274,2.526l276.099,263.479c2.104.831,3.445,2.062,4.684,3.949,1.14-1.497,3.523-3.029,4.521-4.482.219-.318.516-.489.181-.909-2.506-2.662-4.967-5.356-7.572-7.93-31.025-30.664-63.318-60.376-95.048-90.328-1.671-1.578-4.254-4.84-5.909-5.969-1.129-.771-2.435-.684-3.603-1.436-1.57-1.011-11.906-11.019-12.979-12.578-1.416-2.058-.463-2.809-3.94-3.619L249.268,120.287c-.786.873-1.912,1.653-2.696,2.455ZM217.773,97.907l-50.216,48.231c.64.777.781.2,1.266-.178,1.907-1.484,4.773-4.479,6.666-6.292,13.968-13.379,27.589-27.134,41.69-40.38l.594-1.382ZM230.73,98.626c-2.052.871-.386,2.485-.013,1.243.105-.349-.023-.85.013-1.243ZM224.976,102.943c1.031.515,4.495-1.391,4.316-2.332-.122-.643-.446-.448-.892-.183-.932.554-1.47.919-2.504,1.459-.504.263-1.081.19-.92,1.056ZM233.973,105.82c-.932-1.761-2.914-2.575-1.811.205l1.811-.205ZM235.412,106.546l-3.954.533c.352,1.165,5.003.379,3.954-.533ZM90.53,114.829c-1.486,1.391-4.989,4.602-3.957,6.826l32.394,30.957,5.573-5.574-34.01-32.209ZM225.691,117.703l-.895-2.158c-1.427.705.809,2.261.895,2.158ZM144.344,132.101c-.068-.055-.558-.11-.903-.34-1.583-1.054-3.083-3.662-4.853-4.699.871,3.741,4.045,5.823,6.476,8.485l1.076-.566-2.516,3.236c1.59.258,2.912-1.428,3.612-2.696,0-.476-2.346-2.804-2.892-3.419,5.34,4.301,10.783,9.631,15.478,14.758-.591-.385-1.493-.539-1.982-1.438-.346-.012-.126.486-.178.718-1.273-1.248-2.408-2.496-3.429-3.96l-2.67,2.031c-.222.743,2.661,4.557,3.471,4.771,1.522-.137,2.322-1.488,2.627-2.841,1.122,1.1.134,1.116.681,1.986.876,1.392,3.489,2.874,4.358,4.49-1.245.026-4.75-4.669-5.219-4.67-1.137,1.347-2.294,2.285-4.138,2.332l11.337,10.614,2.282-3.722-3.899-4.012c.93-.47,1.675,1.226,2.34,1.62.272.056.231-.347.173-.531-.844-2.695-3.842-5.298-5.754-7.386,1.555,1.013,2.54,1.969,3.956,3.239-.388-1.819,2.586-3.351,1.994-4.671-5.739-5.05-11.013-10.606-16.559-15.856-1.171-1.108-9.044-8.712-9.683-8.601-1.016.908-2.38,2.618-1.964,4.032.152.515,5.795,5.992,6.778,7.098ZM229.65,129.941c.226-.648-.59-.872-.588-1.26.001-.259.597-.52.437-.899-.635-1.513-6.056-5.344-7.401-6.839l1.44,3.597.891-.715,5.221,6.116ZM247.291,128.497c.433-.582-1.824-2.275-2.343-2.502-2.492,3.178-.925,3.869,2.343,2.502ZM243.792,130.559c1.144.982,3.957-.234,4.932-1.158-.983-1.171-2.074.54-3.425.571-.736.017-1.272-.374-1.967-.388-.041.034.361.89.46.975ZM234.333,132.457c-.597-.775-1.454-2.069-2.519-2.153.597.775,1.454,2.069,2.519,2.153ZM231.09,131.74c.24-.451-.576-1.254-.713-1.08-.24.451.576,1.254.713,1.08ZM144.34,141.459l-1.454-3.041,1.792-2.488c-.536-.524-3.791-4.284-4.29-3.829l-2.137,3.73,6.09,5.629ZM228.57,133.539v-.716h-.353v.716h.353ZM235.42,135.7l.543-.72-1.986-1.8,1.443,2.52ZM231.092,133.902h-.716s.002.533.002.533l.538.544.176-1.076ZM220.66,134.261c.348.401-1.717,2.318-.54,2.517.818.138,2.425-2.831.54-2.517ZM237.931,137.498c.35-.345-1.133-2.034-1.796-1.796-.395.39,1.396,2.19,1.796,1.796ZM153.34,140.746l-5.267-4.66-2.624,2.363c-.111.638,4.341,5.039,5.256,5.118.689-.104,2.96-2.36,2.635-2.821ZM142.544,141.096c-.976-.896-3.361-4.062-4.327-4.508-.396-.183-.678-.281-1.065,0l-17.646,17.638,26.41,24.643c1.245-1.034,8.074-7.029,8.074-8.001.001-1.635-1.41-1.635-2.269-2.411-5.568-5.035-5.624-6.33-12.909-9.409-9.384-3.966-6.438-17.977,3.731-17.953ZM219.573,137.142c-.654-.6-3.695,2.526-3.596,3.052.108.572.435.49.898.187.366-.239,3.08-2.889,2.698-3.239ZM144.703,140.016l-.716-.716-.002.718.718-.002ZM208.196,151.423c-1.126-1.505.708-3.551,1.998-4.404,1.898-1.255,2.486.646,3.695-1.349,1.107-1.826,2.497-5.892-.927-5.643-4.678.34-14.836,10.965-14.66,15.656.02.521.01,1.035.36,1.468,1.791,2.269,8.826-3.392,10.107-5.083.253-.683-.432-.456-.574-.645ZM152.261,148.296c.335-.288-1.159-2.025-1.429-2.347-.996-1.188-3.5-3.76-4.686-4.672-.361-.278-.457-.697-1.08-.537.083.551-.358,1.169-.335,1.645.02.422,4.852,5.49,5.378,5.727.695.312,1.427.189,2.152.185ZM240.809,144.699c-.274-.891-1.339-2.227-1.971-2.885-.374-.389-.634-.84-1.264-.713-.442.442,2.719,3.293,3.234,3.598ZM233.253,172.055c5.346-5.92,12.215-11.394,20.161-13.142-.015-.667-3.126-3.526-3.774-4.145-2.347-2.245-12.66-12.482-14.655-13.061-.573-.166-1.128-.315-1.732-.244l1.078,1.794c-.724.151-.929-.667-1.603-.701-.656-.033-5.521,2.022-5.788,2.483l.192,1.458c-.877.292-1.904-1.297-2.333-1.334-1.793-.154-11.702,9.224-13.329,11.05-.916,1.028-5.155,5.957-4.834,6.986.157.502,1.635.508,1.056,2.017-.131.153-.939-.506-1.435-.204-.356.217-3.505,6.112-3.544,6.568-.054.621.854.857.661,1.554l-2.154-.717-.371,5.144c5.281,4.428,9.987,9.933,15.12,14.477.399.353,3.018,2.593,3.243,2.333,1.421-8.355,7.837-16.686,14.04-22.315-2.03,2.248-4.39,5.078-6.269,7.59-2.042,2.732-8.283,12.415-7.342,15.549l26.751,25.812c2.728-3.806-3.012-3.915-1.214-7.332.299-.569,2.22-2.425,2.822-2.601,1.029-.3,1.925.428,2.525.056.47-.291,2.766-4.31,3.456-5.208,5.304-6.904,17.506-19.151,26.284-20.509.987-.153,2.027.017,3.019-.041l-.527-1.089c-8.257-6.771-15.515-15.648-23.583-22.491-2.387-2.024-3.19-2.782-6.578-2.248-5.793.913-15.036,8.603-19.344,12.512ZM150.819,150.457c.207-.361-1.287-2.145-1.611-2.524-.899-1.051-5.362-5.588-6.32-5.916-3.551-1.217-7.694,2.343-8.794,5.572-1.847,5.423,2.17,11.72,8.088,11.508.212-3.756,4.552-9.248,8.636-8.64ZM244.05,143.263h-.716v.353h.716v-.353ZM248.372,147.935c-1.083-1.122-2.141-3.121-3.42-3.957-.55-.36-.913-.124-.893.181.02.288,3.956,4.088,4.312,3.776ZM165.581,150.455c-.738-1.394,2.808-2.715,1.26-3.949-.666.421-2.888,3.424-2.338,3.95h1.077ZM213.816,152.258c.355-.354,1.933-.684,1.774-1.572-1.098-.884-3.29-4.279-4.647-3.659-.237.108-2.429,2.378-2.489,2.604-.272,1.035,3.15,3.786,4.105,4.424.413-.572.75-1.292,1.256-1.797-.904.917-3.435-.595-3.256-1.96l.526-.952c1.66-1.339,4.039,1.584,2.73,2.912ZM244.769,148.298c.24-.451-.576-1.254-.713-1.08-.24.451.576,1.254.713,1.08ZM247.648,151.898l-2.153-2.879c-.013,1.398.984,2.338,2.153,2.879ZM152.263,151.178c1.214.105,4.345,4,5.578,5.04.404.341.586.872,1.261.715l-7.741-7.554c-.59.751.535,1.362.902,1.798-1.093-.095-2.665.651-3.425,1.436-1.461-.048,1.408-.899.544-1.794-.604-.626-4.723,3.73-5.186,4.349-.875,1.173-2.649,3.92-.935,5.007-.173-1.77.85-3.542,2.16-4.679-.256,1.502-2.373,3.053-1.623,4.671l7.926,7.56c1.584-3.417,4.26-7.401,8.099-8.275.146-.547-.147-.598-.355-.902-1.516-2.212-5.21-5.007-7.204-7.374ZM213.095,150.814c-.192-.715-.766-.807-1.437-.714v1.076s1.437-.362,1.437-.362ZM252.328,151.898c.24-.451-.576-1.254-.713-1.08-.24.451.576,1.254.713,1.08ZM168.099,156.575c.223-.244-1.757-4.075-2.088-4.567-.312-.463-.409-.983-1.148-.828-.172.183,1.77,4.095,2.088,4.567.311.463.409.982,1.148.828ZM250.528,153.337c.375-.425-1.341-1.987-1.793-2.159-.404.459,1.691,2.275,1.793,2.159ZM252.659,152.93l-2.846-1.574c.636.922,5.438,4.709,4.675,5.58l-2.157-.355c1.605,2.598,4.576,2.429,7.019,4.316,1.627,1.256,2.663,3.251,4.137,4.502.905.768,2.021,1.056,2.7,1.619.884.733,2.93,3.292,3.606,3.595.157.07.59.092.533-.175-1.534-2.27-5.744-4.606-6.852-6.833-.765-1.537,2.286-.367,3.076.17,1.998,1.36,3.546,4.8,5.4,6.479l-.181-1.075,1.439.354-12.06-11.513.18,1.436c-4.341.011-5.805-4.619-8.46-7.195l-.21.671ZM257.011,154.777l-.677.029-.04.506,1.076.543-.359-1.077.719-.178-2.518-1.978,1.8,2.156ZM252.691,155.134c-.396-.689-1.108-1.401-1.796-1.796-.149,1.16.656,1.946,1.796,1.796ZM210.221,153.698l-.185,2.152c.861-.787,1.951-2.059.185-2.152ZM257.371,156.221c.359.46,1.463,2.382,2.153,1.256l-2.153-1.256ZM168.459,157.299c-.983-.194-.617.247-.872.728-.435.818-.75,1.729-1.286,2.507,1.806.143,2.323-1.779,2.158-3.234ZM182.136,159.456c.255-.324-.522-1.489-.896-1.792l-.54.889,1.436.904ZM194.02,161.614c.654.6,3.695-2.526,3.596-3.052-.108-.572-.435-.49-.898-.187-.366.239-3.08,2.889-2.698,3.239ZM163.421,160.893c-.21-.466-2.093-2.555-2.52-2.153.541,1.311.838,2.3,2.52,2.153ZM160.539,160.178c-2.064.331-3.88,1.69-5.221,3.234-.522.601-3.228,4.092-1.794,4.681,1.109-3.264,3.441-5.33,6.306-7.022.463-.274.909.066.709-.894ZM161.62,161.26c-3.779.623-7.187,4.544-7.554,8.273l2.691-4.322,4.862-3.951ZM167.019,161.26c-6.134,1.303-11.557,7.641-12.954,13.672l1.646-3.208,5.741-6.857,5.567-3.606ZM163.421,161.62c-4.044.878-8.183,4.812-8.635,8.993l2.868-3.786,5.768-5.207ZM338.361,322.87l-.528-1.088-167.732-159.824c-2.417-1.392-6.847,2.036-8.65,3.627-2.165,1.912-8.035,8.776-6.327,11.709l168.304,160.693c.79.118.422-.124.542-.524,1.952-6.457,7.754-12.964,14.39-14.594ZM191.5,163.414l2.511-1.258c-.605-1.346-2.939.872-2.511,1.258ZM186.818,170.612c-2.06-2.052-4.445-4.651-6.658-6.477-.406-.335-.581-.874-1.259-.717l1.443,3.595.53-1.434,4.686,5.754.181-1.083,1.076.362ZM269.246,168.095c-.272-.887-1.341-2.234-1.972-2.884-.447-.461-.888-1.166-1.623-1.073-.446.455,3.056,3.616,3.594,3.957ZM125.266,172.411c-1.179-1.341-2.412-2.805-3.778-3.957-.404-.34-.586-.873-1.261-.715,1.179,1.341,2.412,2.805,3.778,3.957.404.34.586.873,1.261.715ZM129.585,178.17l-9.899-9.708-3.773,3.413c1.719,1.127,4.97,5.787,6.48,6.472,1.85.839,5.17-.382,7.192-.177ZM185.019,172.771c-.209-.465-2.094-2.555-2.52-2.153l1.804,3.953-.362-1.62,1.077-.181ZM273.205,171.695c.24-.451-.576-1.254-.713-1.08-.24.451.576,1.254.713,1.08ZM187.175,173.134c.24-.451-.576-1.254-.713-1.08-.24.451.576,1.254.713,1.08ZM282.926,179.972c-4.401-.072-6.193-4.731-8.819-7.555l.181,1.075-1.439-.354c2.406,2.441,4.099,5.25,6.659,7.555.398.358,1.131.433,1.635.884.767.687,3.814,4.902,4.662,4.154.117-1.018-1.675-1.464-.893-2.523,1.371.13,2.538.576,3.592,1.448.432.357,1.412,2.503,1.619.902l-7.738-7.382.54,1.796ZM121.663,179.614l-.519-1.457c-.706-.677-5.588-5.376-5.957-5.205-.719.334.117.792.36,1.083,1.763,2.107,4.047,3.799,6.116,5.579ZM154.062,172.778l-1.261.715c-.661.88-6.397,5.967-6.122,6.48.449.837.883.119,1.266-.178.723-.56,6.707-6.462,6.117-7.018ZM203.017,187.172c1.518,1.3,2.588,2.71,3.781,4.318l.713-.716c.498.172,1.202,1.873,1.983,1.259l-13.138-12.418.18,1.436c-4.292-.023-5.928-4.486-8.459-7.195l-.713.716-1.625-1.074,3.956,4.141-1.795.713c1.364.572,2.541,2.653,3.624,3.215.918.476,2.076.321,3.044.916,2.095,1.287,4.295,5.378,6.111,7.207l-.541-1.435,1.078-.182c-.462-.473-3.47-3.206-2.876-3.779,2.805.164,3.336.859,4.678,2.878-4.536-3.884-.406,1.526,1.436,2.52-.33-.849-.938-1.77-1.436-2.52ZM186.819,175.651l-.716-.716-.002.718.718-.002ZM278.968,176.371l-1.436-1.436c-.077.773.718,1.528,1.436,1.436ZM280.408,177.094l-1.437-.359c-.048,1.017.95,1.578,1.797,1.436l-.359-1.077.719-.178-2.518-1.978,1.8,2.156ZM193.658,177.09c.116-.102-1.701-2.197-2.16-1.793.173.451,1.735,2.167,2.16,1.793ZM187.899,176.73l-.545-.713-.533-.002v.716s1.078-.002,1.078-.002ZM192.578,177.45l-1.436-1.436c-.077.773.718,1.528,1.436,1.436ZM124.546,182.137c-3.504.396-4.685-3.979-7.559-5.039l6.299,6.469,1.26-1.43ZM194.374,179.614l-1.256-2.152c-1.125.689.797,1.794,1.256,2.152ZM132.465,179.25l-1.076-1.076c-.119.681.42,1.198,1.076,1.076ZM156.94,180.332c.343-.292-1.329-2.528-1.989-1.449l-.17,1.449h2.159ZM130.845,178.894c-2.191-.451-5.739.332-8.099,0l-.002,1.438c3.143.192,6.233-.215,9.359-.362-.001-.303-1.177-1.06-1.258-1.076ZM133.005,180.693h-9.899c-.029.679-.175.74.546.733,1.498-.014,2.941-.459,4.689-.387.661.028,5.219.99,5.207.55l-.544-.896ZM144.339,184.653c-.11-1.389,1.206-2.145,1.803-3.062.3-.462.4-.786-.184-.895-.763-.143-1.959,1.852-2.165,2.508-.218.696-.566,1.697.546,1.45ZM158.38,181.771c-.218-2.223-2.502.821-3.954-1.078l.604,1.459,3.351-.381ZM132.463,182.135l-6.836-.358c-.03.53,1.289.633,1.661.674,1.283.141,3.198.265,4.484.283.651.009.783.479.691-.598ZM126.704,188.61c.15-.691-.352-.861-.752-1.224-1.615-1.464-3.174-3.164-4.825-4.534-.405-.336-.582-.873-1.259-.717-.155.677.381.853.718,1.259.9,1.085,3.609,3.919,4.664,4.695.493.363.728.678,1.454.522ZM193.656,182.497h-.716v.353h.716v-.353ZM125.266,184.293h5.579c.187,0,2.627-.571,2.698-1.076-3.072.998-5.309-.483-8.278-.361v1.437ZM124.542,183.931v-.716h-.353v.716h.353ZM196.896,186.091c.402-.418-2.482-3.285-2.876-2.876-.163.746,2.518,3.248,2.876,2.876ZM135.345,185.009l-.935-1.415c-2.636,1.003-6.202,1.839-8.971,1.065l-.171.711,10.077-.362ZM286.887,184.649l-.716-.716-.002.718.718-.002ZM288.327,185.369l-.545-.713-.533-.002v.716s1.078-.002,1.078-.002ZM144.642,185.088l-1.016.103c5.323,10.068,10.561,20.182,15.739,30.326l1.174.45-15.898-30.879ZM134.625,187.532c-1.779-3.391-5.625-1.026-8.639-1.436l1.458,1.64c.375.298.75-.204.881-.204h6.299ZM135.701,187.172c.091-.718-.663-1.513-1.436-1.436l1.436,1.436ZM288.326,186.807c.056-1.294-1.301-1.242-2.178-.916-9.096,8.464-18.294,17.008-27.167,25.748-1.154,1.137-9.342,8.991-9.013,9.728l1.277,1.08c.829-1.195,1.495-2.889,2.336-3.97.876-1.126,6.099-6.114,7.207-6.844,6.406-4.217,12.03-10.696,16.895-16.568.762-.92,6.086-5.913,7.067-6.611.959-.683,2.44-1.285,3.576-1.647ZM284.367,186.457c-2.308-.795-5.133-.143-7.32.787-7.865,3.343-20.666,15.646-24.864,23.354-.311.57-1.094,1.467-.77,2.12l2.899,2.883c4.984-7.962,11.403-15.413,19.144-20.804,3.826-2.665,8.013-4.383,10.911-8.341ZM129.223,191.133c-3.284.859-4.517-4.187-7.556-4.677l6.122,5.957c.592.537,1.762-.926,1.434-1.28ZM291.696,187.4c-.442-.341-.154-1.01-1.296-.895-.551.055-3.545,1.319-4.138,1.666-.302.177-.595-.093-.452.617l18.722,17.668.465.107,3.324-2.832.007-.733c-5.813-4.579-10.829-11.125-16.633-15.598ZM134.085,188.252c-2.203.136-4.455-.099-6.659,0-.125,2.872,4.934.366,6.939,1.066l.978-1.424c-.507-.203-1.038.345-1.258.358ZM205.537,192.932c-.244.022-.731-.149-.718.178l1.978,2.334c.808-.648.448-.505,0-1.073-.364-.462-.848-.941-1.26-1.44.244-.022.731.149.718-.178-1.546-1.257-2.787-3.436-4.678-4.138,1.219,1.539,2.705,2.8,3.959,4.316ZM284.957,188.998l-7.048,6.679c-.244.801,1.354,2.096,1.949,2.663,2.318,2.209,4.788,4.378,7.209,6.482,1.048,0,4.522-4.705,5.74-5.431.515-.307.739-.471,1.381-.29.477.134,5.224,5.051,6.027,5.879.508.524,2.809,4.259,3.772,2.711.408-.655-.033-.683-.359-1.084-.656-.806-1.733-1.778-2.513-2.526-3.049-2.925-6.318-5.705-9.378-8.62-.947-.902-6.217-6.562-6.78-6.463ZM134.985,190.052h-6.839c-.167,1.408.557.36.9.36h5.939v-.36ZM202.293,191.492c.24-.451-.576-1.254-.713-1.08-.24.451.576,1.254.713,1.08ZM135.525,191.132c-1.302-.332-3.756.242-5.219,0l3.402.737,2.357-.021c.012-.226-.418-.685-.54-.716ZM137.504,192.575l-7.197-.726c-1.059,2.431,1.969,1.93,3.773,1.797.894-.066,2.983-.236,3.425-1.071ZM203.733,193.291c.118-.649-.486-1.18-1.073-1.44-.118.649.486,1.18,1.073,1.44ZM208.053,192.93v-.716h-.353v.716h.353ZM129.222,193.29v-.716h-.353v.716h.353ZM135.885,194.011c-1.964.127-3.975-.092-5.939,0,.474,1.398,1.565.36,1.98.36h5.399c.061,0,.566-.485.54-.716-.714-.3-1.569.33-1.98.356ZM276.808,193.655c-1.201.214-2.367,1.172-3.353,1.863-4.628,3.242-8.826,7.341-12.476,11.641l-3.605,5.21c4.406-3.652,8.404-7.791,12.404-11.89.836-.856,1.966-.848,1.633-2.514.504.238.736.386,1.262.047,1.229-.792,2.979-3.257,4.135-4.357ZM223.895,206.97c1.944,1.856,3.593,3.951,5.221,6.117l-.553-1.617.73-.359-14.222-13.857-.533.175,3.591,3.601c-.444.657-.531.429-1.084.382-3.589-.307-5.396-5.341-7.905-7.4l-.177,1.075-.904-.177,3.235,3.604-1.796.356c1.064,1.017,2.128,2.349,3.477,3.002,1.067.517,2.177.491,3.184,1.135.753.481,3.3,3.531,3.416,4.323-.937-.93-2.636-3.093-3.42-3.6-.548-.355-.913-.132-.892.181l4.134,4.138c.304.018.212-.485.178-.718.72.715,1.474,1.393,2.156,2.159l.177-1.075.904.177c-.447-.614-3.594-3.037-2.876-3.779,1.753-.103,2.208.604,3.238,1.438-.293-.03-.601.024-.897-.002-.365.054-.218.473-.01.729.513.63,2.401,1.711,3.064,2.512-.282-.992-.917-1.482-1.436-2.52ZM209.134,197.249c.35-.345-1.133-2.034-1.796-1.796-.395.39,1.396,2.19,1.796,1.796ZM213.812,197.971c.094-.756-.775-1.416-1.433-1.799-.094.756.775,1.416,1.433,1.799ZM271.765,220.647l.52-1.463,13.85-13.179c.159-.45-.081-.694-.307-1.032-1.614-2.407-6.294-5.091-8.169-7.696l-15.242,14.552,9.349,8.818ZM215.975,199.767c-.396-.689-1.108-1.401-1.796-1.796-.149,1.16.656,1.946,1.796,1.796ZM293.547,199.417l-20.899,20.155c-.573,1.127,3.099,2.916,3.621,3.949l20.898-20.156c.54-1.065-3.113-2.878-3.62-3.948ZM167.387,200.494c-1.669,3.596.22,4.099,2.867,1.977-.909-.753-1.536-2.165-2.867-1.977ZM343.039,232.892l-32.574-30.587-4.133,4.125,32.57,31.129c.55-.758,4.556-4.035,4.137-4.666ZM215.254,203.014h-.716v.353h.716v-.353ZM166.665,204.09c-.048,2.258,4.993.393,5.029-.18-.561-.784-.656-.462-1.324-.255-1.255.389-2.275,1.337-3.705.435ZM327.33,237.078l-26.939-30.834-2.704-2.349c-.576.571-1.435,1.103-.913,1.986l34.396,39.241,5.391-5.035c-3.449.366-6.696-.676-9.232-3.01ZM221.731,206.248v-.716h-.353v.716h.353ZM299.49,213.446l-3.784-7.549-16.712,16.321,6.633,7.422,2.698-1.792c.065,1.148-.585,2.376-1.798,2.525l27.537,31.302,16.352-16.322c-.074-.423-4.137-4.079-4.837-4.905-8.585-10.137-17.086-20.553-26.084-30.428-.511-.561-1.117-1.047-1.631-1.608l-.181.181,1.882,3.879-.074.974ZM338.361,238.281c-4.835-5.412-10.434-10.09-15.667-15.104-5.676-5.439-11.092-11.286-17.22-16.182l-2.022,1.955,25.371,28.255c3.095,2.065,6.089,2.927,9.537,1.076ZM223.171,211.289c.24-.451-.576-1.254-.713-1.08-.24.451.576,1.254.713,1.08ZM230.734,215.245c-.894.616-3.847-3.083-4.677-3.779-.285-.239-.721-.944-1.081-.359.475,1.029,8.543,7.211,7.556,8.099l-1.437.18c.86.655,1.675,1.958,2.504,2.536,1.419.99,2.642.651,3.96,1.44,1.748,1.046,3.667,4.774,5.235,6.284l.713-.716,1.623.899c-.348-.538-4.488-4.029-3.956-4.499l2.849.567,6.146,6.987.204-1.796-11.714-11.345c-1.913-.597,1.287,1.486.713,1.984-4.309.2-6.459-4.987-8.995-7.741l.358,1.26ZM248.617,211.344c-.418.035-1.435.635-1.312,1.181l5.206,4.876c.436-.532,1.503-.995,1.101-1.788-.149-.293-4.668-4.296-4.995-4.269ZM224.611,213.089c.24-.451-.576-1.254-.713-1.08-.24.451.576,1.254.713,1.08ZM261.2,212.035c-1.624,2.178-5.33,4.176-6.73,6.257-.225.335-.467.576-.3,1.023l19.169,17.865c.902-.156,3.674-4.602,3.762-5.645.091-1.076-3.369-7.395-4.261-8.539-2.965-3.798-7.888-6.797-10.959-10.649l-.681-.312ZM232.533,214.165c.116-.102-1.701-2.197-2.16-1.793.173.451,1.735,2.167,2.16,1.793ZM246.433,213.107c-.674.144-1.493,1.699-1.133,2.489.195.429,4.309,4.364,4.642,4.306l1.643-1.904c-.738-.681-4.547-5.02-5.152-4.891ZM228.574,215.605l-1.076-1.076c-.119.681.42,1.198,1.076,1.076ZM228.574,215.972c.359.46,1.463,2.382,2.153,1.256l-2.153-1.256ZM235.41,218.488c-.083-1.065-1.378-1.922-2.153-2.519.083,1.065,1.378,1.922,2.153,2.519ZM231.452,217.772h-.716v.353h.716v-.353ZM237.211,220.286c.504-.513-1.871-2.55-1.791-1.258.008.133,1.449,1.606,1.791,1.258ZM249.448,223.527c-.686-1.765.88-3.783-1.795-4.317.01,1-.367,1.681.717,1.976l-.717,1.255,1.795,1.086ZM255.211,221.724c.146-.125-1.667-1.942-1.796-1.796-.221.669,1.403,2.132,1.796,1.796ZM252.765,223.817c-.431-.724.91-3.112-.246-2.082-.574.962-1.1,1.692-.641,2.816l-.637.235,17.468,16.751,1.455-1.453c-5.481-5.209-10.969-10.407-16.391-15.676-.281-.273-.93-.46-1.008-.591ZM253.414,221.73c-.074.058-.337,1.084-.198,1.423.154.375,3.67,3.707,4.325,4.343,4.198,4.076,8.714,7.861,12.791,12.069.453.332.812-.013,1.093-.369.884-1.122-.805-1.521-1.461-2.166-4.432-4.36-9.363-9.728-14.028-13.688-.37-.314-2.216-1.852-2.522-1.612ZM250.888,224.247c.142-1.026-.241-2.188-1.436-2.156.44.707.584,1.775,1.436,2.156ZM296.963,248.723l-23.39-26.276c1.168,2.447,2.378,5.962,3.957,8.098,2.307,3.121,8.618,7.978,11.708,10.97,2.157,2.089,4.296,4.24,6.29,6.485l-1.261-.715-16.559-15.837c-.749,2.466-2.196,4.608-4.131,6.297l32.57,31.129c3.411-3.696.832-9.119-1.964-12.428l-8.293-7.905,1.075.181ZM308.128,267.44c1.366-1.484,3.961-2.895,5.058-4.488.219-.318.515-.488.18-.908l-34.937-39.591-1.533,1.608,29.152,33.397c2.062,3.071,3.146,6.287,2.08,9.981ZM240.449,227.846c-.272-.887-1.341-2.234-1.972-2.884-.447-.461-.888-1.166-1.623-1.073-.446.455,3.056,3.616,3.594,3.957ZM263.13,229.283c-1.306-1.453-2.643-3.057-4.138-4.317-.404-.34-.586-.873-1.261-.715,1.306,1.453,2.643,3.057,4.138,4.317.404.34.586.873,1.261.715ZM243.331,226.05h-.716v.353h.716v-.353ZM246.57,229.644c.372-.357-2.129-3.039-2.876-2.876-.409.394,2.458,3.278,2.876,2.876ZM244.409,231.446c.24-.451-.576-1.254-.713-1.08-.24.451.576,1.254.713,1.08ZM350.965,239.724c.439.319,2.494-1.692,2.507-2.329.008-.35-2.785-6.08-3.047-6.313-1.391-1.238-3.84.568-5.036,1.452l-45.368,43.901c-4.16,5.192-2.088,6.908,2.214,10.776.766-.175,1.638-.937,1.428-1.773-.474-1.886-2.881-5.169-3.771-7.086l.109-.466,46.819-45.354,4.144,7.191ZM270.689,236.482c-1.179-1.341-2.412-2.805-3.778-3.957-.404-.34-.586-.873-1.261-.715,1.179,1.341,2.412,2.805,3.778,3.957.404.34.586.873,1.261.715ZM245.849,233.246c.24-.451-.576-1.254-.713-1.08-.24.451.576,1.254.713,1.08ZM261.69,247.284l2.157,1.8c.844-1.903-1.191-1.883-1.073-3.6l1.984.698.53-.872-4.499-4.144c-.577.354.85,1.059-.363,1.089-4.176.103-5.194-4.813-7.538-6.53-.48-.352-1.039.133-1.616-.127-.959-.433-2.129-3.012-3.259-2.534l6.11,6.121-1.791.358c1,.719,2.099,2.488,3.048,3.071,1.485.912,1.978.236,3.79,1.79l-1.073.54,3.414,3.058c.304.018.212-.485.178-.718ZM251.968,235.045c.24-.451-.576-1.254-.713-1.08-.24.451.576,1.254.713,1.08ZM346.101,233.972l-1.95,2.28,3.39,4.186,1.932-2.266-3.372-4.2ZM250.171,236.122c.146-.125-1.667-1.942-1.796-1.796-.221.669,1.403,2.132,1.796,1.796ZM255.211,236.485c-.244.022-.731-.149-.718.178l1.978,2.334c.808-.648.448-.505,0-1.073-.367-.465-.851-.949-1.26-1.44.244-.022.731.149.718-.178l-2.158-1.618c-.083.079,1.234,1.549,1.44,1.796ZM250.173,236.487c-.504.513,1.871,2.55,1.791,1.258-.008-.133-1.449-1.606-1.791-1.258ZM343.754,236.848l-.71.174c.719.701.797,1.926,1.288,2.672.732,1.112,2.916,2.481,3.248,3.623.245.843-.34,1.466-.158,2.254.06.26,2.242,4.326,2.518,4.713.653.917,1.51,1.486,2.457,2.039-2.364-4.899-4.616-10.566-8.286-14.585-.26-.285-.313-.852-.356-.89ZM272.741,238.683l-3.826,3.79,32.013,30.927c.271.24.437.144.715,0,.598-.31,4.167-3.455,3.803-4.158-.216-.419-2.341-2.37-2.892-2.892-9.607-9.112-19.337-18.094-28.79-27.368-.293-.298-.609-.41-1.024-.3ZM258.809,240.803c.35-.345-1.133-2.034-1.796-1.796-.395.39,1.396,2.19,1.796,1.796ZM350.235,239.006c-.431-.312-2.507,1.689-2.457,2.271l4.999,9.951c.692.472,2.73-1.351,2.452-2.236l-4.994-9.987ZM346.28,242.6c-1.89-2.298-3.979-4.69-6.461-1.575l3.092,3.354,3.369-1.779ZM340.158,249.083c-.054-1.793,1.405-2.702,2.137-4.091l-3.394-3.09-14.249,13.832-.194.916,4.675,4.285c4.896-4.384,10.573-9.422,17.508-9.696-2.539-3.817-2.575-1.243-4.578-.788-1.686.383-4.036-1.73-5.144-2.984-.189-.213-1.241-1.587-.361-1.621.012.569.351.889.742,1.239.334.299,2.612,2.232,2.859,1.998ZM268.04,243.351c-.828.138-4.697,5.834-3.647,7.165l32.034,30.596c.66-1.388,1.226-2.755,2.043-4.069.455-.732,2.362-2.285,1.941-3.114l-32.371-30.577ZM346.999,243.326c-.389-.408-3.004,1.11-3.238,1.794l2.158-.715.18,1.796c.855-.713.996-1.839.9-2.876ZM258.091,244.4l-.716-.716-.002.718.718-.002ZM342.681,246.924l-.178-.719-.538,1.08.716-.361.175,1.077,1.983-2.515-2.158,1.438ZM353.119,256.637l-.354-.9c-2.934-2.434-4.099-6.285-5.943-9.532l-1.584,2.287c2.903,2.899,5.465,4.985,4.643,9.588l3.237-1.443ZM345.557,247.282v-.716h-.353v.716h.353ZM344.117,248.004l-1.621,1.067-1.251-1.426-.362,2.517c.652.018,1.196-.311,1.753-.586.23-.113,1.959-1.116,1.481-1.572ZM416.833,249.8c-.206-.761-.968-.756-1.605-.736-3.7.113-10.032,6.695-11.865,9.767-1.026,1.719-2.943,4.831-1.107,6.449-.076-2.995,1.743-5.685,3.593-7.922,2.479-2.996,6.971-7.422,10.983-7.558ZM417.915,252.316c-.618-3.933-5.789-.195-7.566,1.262-1.947,1.597-8.86,9.149-7.036,11.725l1.597.287c2.228-5.837,7.033-11.182,13.005-13.274ZM348.078,252.327l-1.074-.364-.002.718,1.076-.002v-.352ZM447.791,374.343c1.988.557,3.803-2.369,5.39-1.623,1.105,1.32,6.432,5.263,6.796,6.562.461,1.649-3.93,3.9-1.912,4.418,1.276.327,3.25-2.238,4.944-1.736,1.213.36,4.425,4.9,5.819,5.717.73.428,1.351.271,2.009.51.52.189.932.758,1.336.861,1.337.341,2.328-2.639,3.856-2.49.855.084,2.591,2.343,3.312,2.483.616.119,1.95-1.284,3.719-.475.595.272,2.416,2.685,2.705,2.685,1.354-2.021,4.723-3.761,5.961-5.562.219-.318.516-.488.18-.908l-138.312-131.711-2.993-1.109c.147,2.041,4.056,3.989,4.256,5.293.228,1.491-1.816,3.528-1.572,4.068,2.311,2.505,4.767,4.811,7.223,7.185,7.112,6.876,15.023,13.421,21.968,20.507.723.737,2.824,2.924,3.12,3.72,1.463,3.927-1.671,8.157-3.264,11.544l9.254,9.849c.704,1.406-2.664,2.961-2.467,3.876.459,2.135,4.897-2.506,5.959-.912.649,1.278,6.012,5.349,6.222,6.027.563,1.82-1.301,2.366-2.109,3.523-.303.433-.673.669.002,1.091,1.419.887,3.338-2.099,5.144-1.564.428.127,6.365,5.659,6.553,6.064,1.052,2.265-2.012,2.795-2.333,4.671,1.88.276,3.242-.549,4.572-1.758l.574-.002c.47.121,6.625,5.914,7.108,6.622,1.141,1.671-2.456,2.88-2.535,4.497,2.592.831,3.851-2.466,5.887-1.388.571.302,6.552,6.225,6.671,6.682.258.988-1.692,2.219-2.302,2.987-.259.326-.846.534-.185.904,1.939,1.084,3.547-2.01,5.145-1.575l6.93,6.427c.773,1.518-1.34,2.563-2.171,3.603-.261.326-.846.536-.183.903,1.747.966,3.683-1.971,5.143-1.574,1.162,1.511,7.266,5.775,7.118,7.312-.125,1.289-2.859,2.174-2.537,3.796ZM343.399,252.687h-.716v.353h.716v-.353ZM418.63,252.686c-6.191,1.786-11.853,7.82-13.313,14.033l1.867-3.707c1.639-2.733,3.983-4.875,6.239-7.079l5.206-3.247ZM342.319,253.046c-3.857,1.42-7.612,3.854-10.436,6.832l5.572-3.964,4.865-2.869ZM348.694,254.225c-2.673-3.24-10.433,1.764-12.965,3.564-1.963,1.395-4.11,3.138-5.646,4.969,2.711-1.204,4.791-3.75,7.45-5.325,3.863-2.288,8.29-4.269,11.624-.071-.02-.978.2-2.333-.463-3.137ZM417.909,280.039c1.329-7.071,7.87-13.176,14.395-15.658-2.47-2.311-4.691-4.925-7.187-7.204-.951-.868-3.944-3.701-4.853-3.8-4.334-.47-11.608,7.519-13.344,11.17-.649,1.365-1.404,3.087-.544,4.534l11.533,10.958ZM350.957,262.408l-7.751-6.858c-7.801,2.638-15.177,9.515-19.613,16.379-1.81,2.8-5.68,9.07-2.513,11.708-1.248-2.503-1.009-6.042,2.524-4.496,2.44,1.068,3.896,4.921,3.082,7.4-.319.971-1.516.939-1.275,1.585l2.149,1.63c.01-5.766,4.367-11.664,8.098-15.843,3.888-4.356,9.456-9.08,15.079-10.793l.222-.713ZM353.48,262.758c-2.433-2.378-4.777-5.857-7.919-7.192,2.014,1.877,4.327,5.101,6.462,6.673.489.36.754.668,1.457.519ZM315.681,283.998c-.117-8.723,6.892-16.252,12.596-22.137,0-.541-4.738-3.788-4.317-5.219l-15.108,14.218,3.127,3.021,3.346-1.405c.57-.636-2.802-2.932-3.238-3.418.753-.752,4.291,2.967,4.489,3.427,1.12,2.603-2.604,6.36-4.838,7.386-2.597,1.193-2.749-.713-4.689-1.992l5.976,11.838c.31.439,2.55,2.795,2.844,2.917.601.25.486-.237.613-.456.694-1.192,1.323-2.449,2.044-3.629-.743-1.04-1.846-1.788-2.68-2.733-.433-.491-.487-1.15-.906-1.614-.99-1.099-2.824-2.021-3.574-3.625.499-.677.745.228.965.426,1.109.996,2.18,2.066,3.349,2.996ZM354.198,257.364c-.644-.115-1.115.08-1.695.283-.352.123-1.818.832-1.539,1.515l1.617-1.073c.55.392.546.582.513,1.213-.021.398-.713,1.357.021,1.297l1.083-3.235ZM352.4,259.165l-.718-.002.002.718.716-.716ZM331.522,260.245c-.385-.342-2.027,1.138-1.796,1.796.125.146,1.942-1.667,1.796-1.796ZM317.48,279.677c1.764-6.406,6.666-11.101,10.804-16.015.34-.404.873-.586.716-1.261-4.096,3.88-8.469,8.986-10.857,14.156-.257.557-1.465,2.788-.662,3.119ZM322.163,286.154c-.598-1.483-2.429-2.194-2.803-3.851-.659-2.922,1.66-7.196,3.156-9.651l7.203-9.531c-2.827,2.452-5.379,5.422-7.489,8.525-2.615,3.847-9.19,14.906-.067,14.508ZM353.838,263.485h-1.076v.353h1.076v-.353ZM350.96,263.845c-6.856,2.58-13.12,8.212-17.427,14.066-2.505,3.405-5.063,7.511-5.247,11.847l2.455-6c3.714-6.401,9.025-12.34,15.132-16.544,1.654-1.139,3.859-1.842,5.087-3.369ZM361.759,272.836c-1.717-1.535-6.709-7.723-8.542-8.22-1.147-.311-4.478,1.523-5.606,2.174-6.235,3.6-14.387,12.203-17.117,18.878-1.06,2.592-2.32,5.912.665,7.688-2.895-6.35,3.349-6.683,5.219-1.434.686,1.926,1.255,4.978-1.254,5.572l2.875,2.341c-.344-5.596,4.165-11.781,7.737-15.842,3.999-4.546,10.085-9.852,16.023-11.157ZM363.919,272.476l-7.575-7.359-2.143-.553c2.482,1.463,5.562,6.355,7.72,7.575.706.399,1.218.41,1.999.337ZM434.466,268.518c.366-6.351-6.295-1.742-8.804.373-2.137,1.802-8.707,9.321-6.966,12.167l3.534.776-1.102-.553c.04-.7-.042-1.416.056-2.113.559-3.967,8.45-12.424,12.696-11.377.43.106-.008.88.586.726ZM423.727,278.91c-1.334-2.759,5.9-9.884,7.882-8.434.409.3.365,1.844,1.237,1.642.47-.109,1.528-2.617,1.107-3.238-1.216-1.94-5.721,1.512-6.871,2.51-2.165,1.878-6.727,6.797-4.972,9.752l3.36-.748c.082-1.046-.904-1.352-1.744-1.484ZM559.736,394.496l-129.333-123.387c-2.014.216-6.986,5.295-5.839,7.127l128.876,122.742c1.326-2.661,3.531-5.282,6.297-6.483ZM309.201,278.958l2.177-4.138-3.072-3.072c-1.126-.001-2.399,2.746-2.643,3.74l3.538,3.47ZM316.402,273.202c-.464-.448-3.422.867-3.598,1.794l2.155-1.075.72,1.796.723-2.515ZM373.637,281.835l-7.739-7.555-1.98-.716c2.006,2.058,3.913,4.45,6.114,6.301,1.007.847,2.263,2.166,3.605,1.971ZM304.882,274.638v-.716h-.353v.716h.353ZM371.477,281.834l-8.176-7.847c-3.019-.904-11.146,5.523-13.426,7.666-3.871,3.64-11.434,12.891-10.801,18.371.133,1.147.842,2.557,2.167,2.688-.867-1.581-1.488-3.223-.108-4.708.842-.558,2.765.156,3.537.742,1.939,1.471,3.732,7.377.532,8.107l2.518,1.978c-.564-4.334,2.698-9.155,5.257-12.558,4.565-6.072,11.186-12.057,18.5-14.439ZM306.682,279.677c.038-.646-2.428-5.486-2.873-5.037-.106.996-.72.838.346,1.346l2.527,3.691ZM312.804,276.439c-.237.02-.482-.014-.72,0l-.178-.718-.538,1.08.716-.361-.176,1.083c.842.11.714-.785.896-1.083.762-.066,1.534-.602,1.436-1.44-1.174.231-1.082.859-1.436,1.44ZM303.812,282.559c.714-.526,2.359-1.717,2.116-2.629-.066-.246-3.038-3.911-3.358-3.838l-1.917,1.963,3.159,4.505ZM314.248,277.159c.137.175.953-.629.713-1.08-.137-.175-.953.629-.713,1.08ZM313.524,277.883l-1.972.716-.903-1.437-.723,2.515c.518.497,3.299-.997,3.598-1.794ZM322.163,279.682l-.714-.002-.362,1.438,1.076-1.436ZM323.961,279.681c-4.529,1.356-1.291,9.641,2.521,5.761-3.106,1.49-5.288-1.848-3.614-4.428.324-.499,1.297-.417,1.093-1.333ZM422.232,282.202l116.806,111.574,2.891-2.514-5.041-5.409-108.894-103.839-1.985-1.254-3.778,1.441ZM306.168,281.133l-1.853,2.16,5.43,10.057c.721-.979,2.374-1.141,1.925-2.611-1.941-2.5-2.917-6.619-4.676-9.028-.224-.307-.347-.705-.825-.578ZM324.793,284.215c1.888,1.588,1.763-2.629-.292-3.088-1.138.834.599,1.593-.92,2.004l.387,1.224.711-.714c-.009.173.003.481.114.574ZM316.76,282.197v-.716h-.353v.716h.353ZM373.636,282.56h-1.436v.716h1.436v-.716ZM371.478,282.922c-7.256,2.027-14.399,8.922-18.651,15.001-2.305,3.295-4.685,7.068-4.382,11.27l.913-3.221c2.732-7.035,8.026-12.796,13.672-17.644l8.449-5.406ZM317.484,285.434c-.581-.547-.4-1.925-1.076-2.154.044.744-.077,2.419,1.076,2.154ZM380.476,291.193c-1.498-1.383-6.203-7.147-7.825-7.486-2.177-.456-10.18,5.658-11.977,7.305-3.639,3.334-12.395,13.975-11.44,18.993.096.505,1.17,2.635,1.724,2.067-2.389-5.149,2.664-6.515,5.051-1.988.937,1.776,1.493,5.503-.728,6.487l1.797,1.26c-.077-5.515,4.204-11.43,7.736-15.481,3.956-4.538,9.778-9.6,15.663-11.157ZM382.996,290.834c-2.048-2.199-4.418-4.89-6.821-6.674-.489-.363-.758-.664-1.458-.518l6.822,6.673,1.457.519ZM308.121,292.637c-.957-2.449-2.382-5.158-3.952-7.198.29.876-.916,1.596-.962,1.969-.178,1.451,3.913,4.057,4.914,5.23ZM320.364,286.881l-1.798.175.898.895.9-1.069ZM321.807,290.477c.77-.283,2.648-3.318,1.249-3.601l-2.33,1.263c.639.371,1.255-.63,1.798.365l-.716,1.973ZM358.159,319.633c-2.635-1.638-5.556-4.774-7.937-6.997-7.098-6.626-13.976-13.652-21.03-20.369-.624-.594-4.398-4.19-4.694-4.307-.647-.256-1.561,2.752-2.326,3.065-1.204,1.14-2.696,3.067-4.508,3.071-2.027.005-2.985-2.663-4.855-3.259-.113,1.552-1.098,2.434-2.158,3.419l151.722,144.876c.664.256.6-.922,1.051-1.458.984-1.167,5.376-4.656,5.194-5.83-.104-.673-.783-1.046-.669-2.212.084-.861,1.135-1.914,1.021-2.504l-14.057-13.653c-.288-1.486-2.369-3.566-1.942-4.942.495-1.593,6.835-6.388,6.671-7.322-.76-1.262-2.274-1.982-3.222-2.921-3.171-3.138-6.588-6.636-9.711-9.907.247.329,1.336.787,1.805,1.256,1.405,1.404,2.749,2.911,4.311,4.143-.863-5.459,2.888-10.787,6.477-14.578l-6.653-6.293c-3.305,2.559-8.838,11.611-5.939,15.471-2.869-3.005-6.628-5.694-9.71-8.826-7.093-7.211-15.163-14.413-22.507-21.409-1.833-1.746-5.738-4.886-6.659-6.84,1.948,1.657,3.919,3.249,5.756,5.039-.3-5.5,3.014-10.307,6.458-14.266l-6.324-6.225c-4.161,3.197-8.337,10.257-5.89,15.452-3.444-2.931-6.856-5.873-10.084-9.176-1.457-1.491-2.224-1.936-3.598-3.238-3.289-3.116-6.421-6.306-9.719-9.359-4.627-4.282-9.328-8.211-13.674-12.782,1.117.017,3.754,3.416,4.859,4.32.836.684.673.297.366-.366-2.955-2.785-5.905-6.037-9.004-8.634-.404-.339-.585-.873-1.261-.715.123.41.335.774.634,1.085,1.413,1.466,2.977,2.809,4.406,4.311-.887-.014-4.162,2.402-5.514,2.945-1.841.739-3.723,1.385-5.751.937-.924-.204-.979-.782-1.333-1.002l.72-.003c-1.073-2.005-.21-5.022.656-7.08,1.104-2.622,2.855-4.914,4.744-6.955-1.886,2.818-7.224,10.376-4.683,13.501,2.123,2.612,2.817-.928,4.317-2.163-1.889-1.176-2.022-.797-1.787-3.237.502-5.209,7.608-12.695,11.904-15.449,1.913-1.227,5.244-2.189,6.084-4.356.546-1.408-2.91.539-3.242.719-2.062,1.12-4.231,2.742-6.112,4.146,3.026-2.919,6.237-5.363,10.438-6.484.181-1.036-.361-.755-1.105-.562-7.173,1.856-18.018,13.352-21.027,20.01-1.129,2.497-2.298,5.326-.905,7.914ZM320.004,290.477c.768-.418,1.484-.483,1.436-1.8-1.416.663-1.193.638-1.436,1.8-.444.242-1.272.066-1.076,1.08.213.258.944-.449,1.076-1.08ZM332.242,289.041l-.714-.002-.362,1.796c.197.435.853-1.432,1.076-1.794ZM319.28,290.115v-.716h-.353v.716h.353ZM334.042,289.401c-3.37.134-2.845,5.947-.168,6.469.899.175,2.445.17,2.325-1.073-.122-.131-1.192,1.717-3.071-.345-1.85-2.03-.553-3.405.915-5.051ZM320.363,291.921c-.75.137-1.817,1.215-2.078-.227-.067-.368.548-1.041.1-1.215l-1.257,2.678.83.506,2.405-1.743ZM335.42,290.903c-.351-.203-.945-.017-1.375-.066.049.847.205,1.347-.691,1.599l.584,1.286c2.855,1.65,2.502-2.231,1.481-2.819ZM384.436,292.273c.277-.197-1.516-1.39-1.798-1.074l-.004,1.077,1.802-.002ZM381.911,303.795c1.052-2.492,5.477-8.895,1.933-10.747-.921-.481-1.12-.634-1.936.119-.132.122-1.73,2.391-1.787,2.535-.413,1.056,1.352-.303,1.698,1.514.55,2.889-2.103,5.072.092,6.579ZM380.473,301.993c.385-2.097,2.029-5.191-1.434-5.035l1.372,1.687.062,3.348ZM377.595,297.319l-1.795.361v.352c.494.168,2.26-.505,1.795-.714ZM341.597,300.193c.07-.067.741-1.488.721-1.797-.761.297-1.211.993-1.073,1.798.116-.019.299.049.352,0ZM378.679,301.276c1.696.137,1.214-2.687.136-2.861l-1.216.882c1.017.436,1.209.829,1.08,1.979ZM344.121,299.469l-.737-.561c-3.561,2.216-1.335,8.017,2.897,6.323l-.173-.71c-3.491,1.663-5.515-3.914-1.987-5.052ZM376.517,298.76l-2.517,1.433c.947-.133,2.118-.467,2.517-1.433ZM386.596,309.549l-9.947-9.639c-1.247-.245-4.557,2.439-5.516,3.384l9.598,9.462,5.865-3.207ZM345.912,303.797c.685-1.504-.016-3.538-1.788-3.603.593,1.509-.698,1.842-.693,1.96.068,1.565,1.24,1.35,2.481,1.644ZM373.636,300.559h-.716v.353h.716v-.353ZM372.196,301.639h-.716v.353h.716v-.353ZM370.268,304.182c-.85.146-4.308,5.264-4.117,6.224l9.813,9.226,4.098-6.246-9.795-9.204ZM366.795,307.395c-1.27.777-3.695,6.356-1.612,6.838l.848-.841c-1.716-2.078-.108-4.013.763-5.997ZM352.4,308.118c-.928-.101-1.203.615-1.076,1.434.158.348.903-1.145,1.076-1.434ZM354.198,308.478c-3.069-.318-3.18,4.838-1.222,6.08.903.572,3.454.895,3.381-.684-2.628,1.604-4.685-.806-3.792-3.618.358-1.128,1.201-1.013,1.634-1.777ZM353.94,312.696c.461.377,2.226.71,2.406-.105-.207-.659-.626-2.448-1.279-2.646-1.528-.462-.914,1.217-.981,1.339-.046.085-1.389.394-.146,1.411ZM364.999,314.96c-.749-.069-1.35-.518-1.439-1.281l.364-3.762c-.534,2.219-2.153,4.325.176,6.11l.9-1.067ZM384.433,328.632c-.562-5.614,2.979-10.555,6.468-14.578-1.455-1.182-2.891-3.961-5-3.232-3.267,1.128-6.655,4.98-8.232,7.982-.719,1.368-1.299,2.122-.077,3.536l6.841,6.292ZM367.876,314.597c-.44-.083-1.843.527-1.435.714.44.083,1.843-.527,1.435-.714ZM363.562,319.633c.936-.192,6.114-2.851,6.109-3.419-1.876-2.201-5.602,1.151-6.109,3.419ZM394.152,337.63c-.359-5.409,3.007-10.365,6.477-14.218l-6.657-6.234c-3.007,2.678-6.687,8.219-6.657,12.359.022,3.033,4.66,6.337,6.837,8.093ZM386.954,330.07l1.798-11.516c-1.989,2.211-4.609,7.72-3.154,10.537.278.538.655,1.095,1.356.979ZM391.275,318.917l-1.785.012-.731,3.942,2.516-3.954ZM330.802,330.071c1.155-1.683,4.529-4.871,6.541-5.517.959-.308,2.735.171,2.457-.957-1.775-1.838-8.923,3.971-10.262,5.389-1.489,1.578-5.343,7.075-5.114,9.136.052.466.462,1.19.975,1.306-.325-3.746,2.8-7.034,5.403-9.359-1.497,2.182-4.808,6.073-4.71,8.822.019.525.038,1.014.616,1.214l1.182.007c1.969-5.703,7.122-11.5,12.993-13.287-.494-1.677-.769-2.1-2.619-1.716-1.897.394-5.919,3.582-7.462,4.96ZM342.681,326.468l-1.436-1.436-.002,1.438,1.438-.002ZM403.87,346.989c-.455-5.684,3.331-10.285,6.484-14.568l-6.35-5.922c-3.769,2.638-8.857,10.943-5.893,15.275,1.28,1.871,4.104,3.613,5.759,5.216ZM341.599,327.195c-6.164,1.55-11.913,7.855-13.313,14.032l2.225-4.429c1.914-2.649,4.035-5.061,6.652-7.027l4.437-2.577ZM355.639,339.066l-11.897-11.333c-1.286-.57-3.949.944-5.131,1.688-3.268,2.056-10.373,9.293-9.608,13.414l11.874,11.352c1.524-6.523,8.074-13.778,14.762-15.121ZM396.673,339.428l1.798-11.516c-2.037,2.289-4.928,8.201-2.817,10.919.312.401.369.743,1.019.598ZM400.994,328.275l-1.785.012-.731,3.942,2.516-3.954ZM554.883,332.693c-1.226.18-5.049,3.422-3.065,4.418.634.318.692-.049,1.091-.367,1.041-.831,2.146-2.029,3.218-2.893l-1.244-1.158ZM559.017,336.184c-.67-1.069-2.028-2.679-3.233-1.254l1.967,1.897,1.266-.643ZM555.242,335.558l-3.605,3.146c-.784-.492-2.147-2.822-3.057-2.355l-12.803,12.443c-.468.91,1.863,2.272,2.355,3.057l-3.207,3.289,1.417,1.771,20.868-19.458-1.968-1.892ZM406.39,348.789l1.8-11.516-2.336,3.598c-.836,2.598-2.468,6.159.536,7.919ZM410.713,337.634l-1.798-.003-.717,3.957,2.516-3.954ZM557.448,338.388l-20.022,19.219,10.662,10.232,20.282-19.591c-1.735-1.061-9.787-10.056-10.921-9.861ZM357.798,342.668c-.536-3.101-1.641-3.615-4.453-2.47-3.682,1.499-9.013,6.93-10.73,10.504-1.565,3.257-1.919,5.755,2.584,5.642-.076-.695-.892-.216-1.094-1.252-.815-4.173,7.975-13.392,12.093-12.984.596.059.936.698,1.6.56ZM462.183,444.174l1.355-2.334-1.882-2.353-103.493-98.257-.316,3.899,15.429,14.64c-.36.585-.796-.12-1.081-.359-4.851-4.067-9.434-9.615-14.241-13.846-.694-.156-1.34,1.29-1.186,1.89l105.241,100.678c1.326-3.689-2.193-5.1-4.331-7.188-2.149-2.099-4.302-4.233-6.29-6.485.675-.157.857.375,1.261.715,3.234,2.725,6.006,6.482,9.534,8.999ZM355.198,342.732c-3.273.404-9.709,7.233-10.473,10.446-.195.82-.522,1.452.265,2.124,1.044.837,2.605-.198,3.449-.938l-1.638-1.238c-1.503-2.113,4.779-8.708,7.21-8.317,1.057.17,1.421,2.377,2.166,1.459l.849-2.625-.673-.804c-.376-.247-.748-.156-1.156-.106ZM423.308,365.706c-.185-5.458,2.973-10.342,6.458-14.266l-6.324-6.225c-3.644,2.542-7.558,9.268-6.533,13.757.377,1.652,5.059,5.295,6.399,6.734ZM482.704,469.006c.332-.442-1.235-1.803-1.61-2.164-41.231-39.758-83.309-78.658-124.37-118.598l-3.416-2.69c-1.946.451-6.426,4.659-5.895,6.575l128.995,123.36c1.293-2.713,3.34-5.514,6.297-6.482ZM587.092,348.787c.382-.338-1.918-2.89-2.624-2.477l-.966.859c.524.482,3.035,2.109,3.591,1.618ZM418.271,346.631c-.933-.218-.628.277-.927.679-2.021,2.722-4.495,8.144-1.41,10.835l2.337-11.514ZM420.432,346.993l-1.798-.003-.717,3.957,2.516-3.954ZM583.134,347.712c-.649-.118-1.18.486-1.44,1.073.649.118,1.18-.486,1.44-1.073ZM585.291,349.862l-.973-1.383c-1.347-.347-5.953,4.071-3.524,5.343l4.497-3.96ZM559.256,364.147c2.866-2.745,6.759-8.018,9.864-10.114.918-.62,1.75-1.12,2.868-.777.8.245,1.301,1.61,2.14.393l-4.682-4.697-.718-.027-20.143,19.482,3.004,2.674c2.234-1.97,4.177-4.251,6.333-6.297.425-.403,1.097-.408,1.335-.635ZM580.61,349.869l-4.67,4.499,2.023,1.954,2.255-2.004c-1.389-1.918-.319-2.688.392-4.449ZM561.536,380.468l1.795.562,26.113-25.402-4.331-4.313-9.354,8.905c-1.106.088-4.142-4.28-5.232-4.784-.396-.183-.678-.281-1.065,0l-17.639,17.289c.657.978,3.851,3.152,3.561,4.255-.098.37-4.786,4.208-5.565,5.266-.36.489-.668.754-.519,1.457,3.168-1.781,7.134-9.098,10.795-4.683-.837.06-.995-.773-1.944-.723-.551.029-2.735,1.226-2.729,1.626l40.899,39.029,3.736-1.965c1.824,1.629,2.672,4.083,3.622,6.284.535.379,3.815-1.318,3.16-2.449l-40.805-38.553-.87.945,2.848,3.19c.057.267-.376.245-.533.175-1.273-.569-4.601-4.978-5.944-6.113ZM532.733,357.068l3.577-4.19c.559-3.301-8.078,2.281-3.577,4.19ZM576.292,359.226c-.008-.382.29-.724.192-1.118-.199-.798-4.337-4.463-5.043-4.28-.431.396-.7.452-.373,1.085.34.658,4.566,4.778,5.224,4.313ZM592.272,355.786c.368-.228,2.522-1.447,2.017-1.958-.794.063-4.185,1.519-3.234,2.518.581.61,1.106-.491,1.217-.56ZM433.027,374.705c-.128-5.501,3.304-10.019,6.458-14.169-.993-.943-5.557-6.127-6.583-5.95-3.38,2.769-7.547,9.625-6.19,14.019.26.842,6.035,6.5,6.315,6.1ZM577.372,357.426c.099-1.621-1.584-2.449-2.874-2.878-.404.437,2.505,3.295,2.874,2.878ZM345.562,356.713l116.266,111.41,3.071-2.711-115.195-110.178-.558-.177-3.584,1.656ZM427.99,355.99c-.862-.192-1.125.968-1.496,1.557-1.744,2.771-3.543,7.31-.84,9.957l2.337-11.514ZM537.417,365.344l-2.773-5.577,1.297-2.109-1.898-1.651c-1.923,1.31-.561,2.293.496,3.576l-1.981-.715c-.115.948.957,2.878,1.622,3.777.291.393,2.862,3.082,3.237,2.698ZM430.151,356.351l-1.799-.003-.718,3.599,2.516-3.596ZM563.698,382.262c3.271-.549,4.775-3.578,6.871-5.544,4.905-4.599,10.227-9.42,15.089-14.067,1.837-1.756,3.564-3.634,5.388-5.403l-1.073-.731-26.275,25.746ZM591.593,357.434l-25.011,24.29,41.159,39.028,24.681-24.221-40.829-39.097ZM537.419,362.107c-.227-.033-.738-.123-.717.177,2.093,4.187,5.406,9.558,10.435,10.258-.413-1.086-1.099-1.973-1.8-2.876.306.113,1.198.432,1.383.322l.738-1.532c-1.931-1.389-8.806-9.391-10.282-9.894-.266-.091-.547-.105-.818-.035l-.642,1.606c.576.652,1.14,1.31,1.701,1.975ZM529.856,364.626l.567-2.159c-.784-1.084-1.647-.673-2.722-.357-.357.498,1.656,2.253,2.155,2.516ZM532.632,363.225l-2.025,2.251,2.619,1.971,2.387-1.921c-.804-.593-1.955-2.57-2.981-2.301ZM443.109,384.06c-.735-1.855.27-4.544,1.015-6.361,1.163-2.839,3.333-5.666,5.458-7.854l-6.653-5.952c-3.58,2.495-7.644,9.325-6.489,13.702.357,1.356,4.312,4.927,5.587,5.931.362.285.462.696,1.083.534ZM437.708,365.348c-.514-.641-.797.484-.931.675-1.731,2.458-3.139,5.762-2.643,8.841.164,1.016,1.031,2.627,1.522.855.791-2.854.954-5.21,1.351-8.015.084-.594,1.016-1.962.7-2.355ZM439.868,365.348l-1.743.414-.771,3.903,2.514-4.316ZM536.697,366.068c-.426-.389-3.271,2.456-2.874,2.877,1.134-.675,1.658-2.137,3.237-1.803l-.363-1.074ZM542.815,372.905c.157-.675-.375-.857-.716-1.261-.855-1.014-2.405-2.564-3.419-3.419-.404-.341-.586-.872-1.261-.715l5.396,5.396ZM541.736,373.618c.16-.614-.266-.723-.535-1.076-.262-.345-4.233-4.017-4.506-4.158-.778-.4-1.285.66-1.787,1.114l4.343,4.277c1.181.71,1.362.255,2.484-.158ZM550.374,374.345c1.107-2.864-.547-3.594-2.336-5.393l-1.204,1.921,3.54,3.471ZM545.698,373.259c-.973-2.253-4.334,1.692-3.598,2.524l3.598-2.524ZM548.938,374.351l-2.287-1.033-3.47,3.183,3.249.543,2.508-2.693ZM551.101,373.265c-.561,2.077.811,5.884,3.233,3.774.601-.524.177-.45-.175-.894-.787-.992-2.069-2.059-3.057-2.879ZM445.627,385.861c-.538-2.152.679-3.849.996-5.663.339-1.939.114-3.927.802-5.853-2.233,1.994-5.099,8.562-2.878,10.981.333.363.513.659,1.08.536ZM449.587,374.706l-1.741.416-.773,3.9,2.514-4.316ZM548.936,376.148h-.716v.353h.716v-.353ZM547.861,382.263c1.989-1.915,5.159-3.354,2.33-6.12l-2.669,2.017c.77,1.51.879,2.481.339,4.103ZM554.882,380.552c-.447-.035-3.737,3.033-3.986,3.515-.269.521-.081.529.18.908.97,1.411,5.371,5.542,6.856,6.833,2.21,1.922,3.365,1.991,5.392,3.247,2.764,1.713,5.211,5.379,7.751,7.367,3.373,2.64,7.102,1.534,9.84,5.638,1.143,1.714,1.032,3.381,1.696,4.783.363.766,1.469,1.06,1.599,2.387.081.822-2.115,8.259-2.523,8.6l-8.793,2.352c-1.057-.174-6.53-6.191-7.33-7.452-1.122-1.769-1.065-2.734-1.797-4.322-2.327-5.048-9.407-7.615-11.032-13.445-2.819-1.346-7.107-7.959-9.575-8.816-.536-.186-.465-.122-.889.168-.644.441-5.615,5.518-5.545,5.917l40.829,39.097,18.166-17.787-40.838-38.991ZM506.103,381.188l.9,1.069c.986-.681.133-1.209-.9-1.069ZM506.085,381.927c-1.199-1.828-7.169,3.482-4.482,5.01l4.26-3.928.222-1.081ZM467.226,386.939l-4.859-4.669c-3.236,2.77-7.361,9.017-6.573,13.407.375,2.093,3.117,3.679,4.414,5.298,2.629-1.647,2.758-3.266,3.949-5.764.404-.848,1.642-2.376,1.789-2.86.309-1.021-.994-2.101-1.176-2.801-.364-1.401,1.236-2.43,2.456-2.612ZM514.022,386.58c.351-.384-3.348-4.104-3.859-4.255-1.29-.381-2.371.592-3.366,1.226-.181,1.141,3.198,3.776,4.233,4.425l2.992-1.396ZM455.346,395.22c-.524-2.072.758-3.865,1.061-5.598.334-1.907.078-3.998.737-5.918-2.212,1.976-5.062,8.601-2.878,10.981.333.363.513.659,1.08.536ZM459.306,384.065l-1.633.343-.881,3.615c.616-.288,2.825-3.675,2.514-3.957ZM474.068,415.732c1.685.154,3.426,4.178,5.03,3.438l31.157-30.796-4.333-3.945c-1.138.78-4.551,5.294-5.687,4.995l-5.472-4.994-20.539,19.793c-.24.271-.143.437,0,.714.615,1.194,5.085,4.049,5.151,4.857-.211,1.168-5.914,5.078-5.308,5.938ZM511.864,389.461c.21.229,3.791-1.96,3.234-2.518-1.14.636-3.482.719-3.234,2.518ZM475.864,387.305c-.676-.155-.854.38-1.259.717-2.015,1.68-3.763,3.867-5.579,5.756.675.157.857-.375,1.261-.715,1.261-1.062,2.931-2.62,4.143-3.775.307-.292,1.818-1.61,1.433-1.983ZM466.327,387.67c-.063,0-.893.83-.893.893-.001,1.415,2.308-.894.893-.893ZM476.455,388.049l-6.36,6.272,6,5.914c1.108-.822,6.636-5.299,6.632-6.278l-6.272-5.908ZM536.697,393.056l-.168-.723-4.64-4.284-5.629,5.729c2.029-.295,3.809,1.19,4.301,3.085l.192,2.672c3.007-1.31,2.762-5.449,5.944-6.481ZM557.217,427.614c.355-.369-.944-1.519-1.251-1.806-10.968-10.265-21.861-20.614-32.775-30.937-1.465-1.386-4.758-5.359-6.092-6.15-1.356-.804-2.601.222-3.643,1.095l39.964,38.902c1.379,1.065,2.14-1.432,3.796-1.104ZM467.054,388.742c-1.72.426,1.758,3.149,2.202,3.574l2.261-2.004c-.335-1.726-1.559-.667-2.642-.847-.618-.103-1.156-.888-1.821-.723ZM481.805,389.47l-1.253,1.253,3.052,2.693.873-1.205-2.673-2.741ZM503.1,399.056c.828-.807,1.724-1.686,2.647-2.57.797-.763,5.582-5.39,5.7-5.824.173-.637-.021-.819-.485-1.192l-31.849,30.768c.61,1.034,1.895.243,2.488-.384,6.821-7.217,14.323-13.811,21.499-20.798ZM521.939,389.826h-2.156v.353h2.156v-.353ZM512.402,390.549l-31.843,31.103,40.833,38.714,31.84-30.72-40.829-39.097ZM524.46,391.619c-.259-.586-.79-1.191-1.44-1.073.259.586.79,1.191,1.44,1.073ZM520.141,390.906l2.141,2.011,1.092-.755c-.861-1.213-1.77-1.45-3.233-1.256ZM523.92,392.35c-.427,0-1.433,1.553-.355,1.791,1.093.24,1.093-1.792.355-1.791ZM464.711,396.662c1.254-.793,2.357-1.999,2.153-3.599-1.018.808-1.901,2.328-2.153,3.599ZM536.965,393.496c-1.31.334-4.255,3.661-2.605,4.958l4.137-4.139c-.069-.914-.759-1.017-1.532-.82ZM468.665,394.144l-11.51,10.617.893.181,10.617-10.798ZM524.821,394.864c.094,2.084,2.18-.141,3.273,1.225.939,1.173-.591,2.219.506,3.085,2.356-2.766-.682-5.612-3.779-4.31ZM473.3,411.007c.47-.798-1.526-3.204-1.692-4.177-.48-2.815,4.057-4.921,3.872-5.98l-6.278-5.901-10.948,10.842,9.945,9.549c1.559.41,3.01-4.303,5.101-4.333ZM560.814,394.866c-3.144.635-6.364,4.059-6.834,7.193l2.868-4.146,3.966-3.047ZM570.534,403.136c.148-.544-.145-.596-.354-.9-.607-.881-2.699-2.78-3.6-3.599-.835-.76-3.713-3.438-4.496-3.444-2.513-.018-7.86,5.751-7.729,8.146.072,1.312,6.933,6.624,8.081,8.073,1.735-3.476,4.202-7.076,8.098-8.277ZM637.486,395.224c-1.505-.261-2.604.604-3.591,1.618l1.075.367,2.516-1.985ZM633.348,397.389l-24.839,24.471c.355.636,1.669-.629,1.987-.897,7.058-5.935,14.533-14.174,21.422-20.693.236-.224,3.156-2.951,1.43-2.882ZM533.817,399.179l-.002-.718-.715.542.716.176ZM564.056,432.656c-.068-.055-.558-.11-.903-.34-1.164-.776-2.388-2.723-3.598-3.617-.108.761.853,2.809,1.251,3.332,1.408,1.852,5.607,5.434,7.57,7.465-.068-.055-.558-.111-.903-.34-1.811-1.205-3.568-4.207-5.572-5.419l5.686,11.408,6.711,6.608c1.049,1.282,2.723-1.694,2.93-2.537.396-1.611-1.233-1.919-2.202-2.871-2.273-2.235-4.439-4.56-6.65-6.848.068.055.558.111.903.34,2.185,1.454,4.586,5.18,6.838,6.857.098-.918-.825-2.638-1.321-3.358-.769-1.115-2.203-2.381-3.18-3.479.094.069.55.109.903.34.349.229,1.743,2.001,1.972,1.818-.258-1.55,2.678-3.631,1.999-4.684-.17-.263-.927-.549-1.281-.888-13.117-12.549-26.076-25.301-39.409-37.605-.462-.003-3.056,3.68-2.005,4.496,10.037,9.836,20.381,19.341,30.262,29.322ZM532.379,400.265c-.682-.145-.972.457-1.433.896l.533.533.9-1.429ZM572.695,404.217c-.209-.756-.942-.777-1.585-.714-2.763.271-8.777,6.482-7.77,9.717l1.433-2.157c-2.678,9.075,9.421,15.325,15.31,7.925,5.748-7.224-1.835-17.135-10.265-13.689l2.877-1.081ZM473.177,405.3c-2.623,2.38,1.996,3.891,3.304,5.71l1.73-.669-5.035-5.042ZM457.148,405.664c-1.098-.146-2.395,1.083-2.518,2.154.411.404,2.319-1.694,2.518-2.154ZM467.223,420.058c-.643-1.869-.07-2.657.567-4.33l-10.155-9.318-2.273,1.95,11.86,11.698ZM475.866,411.416l-2.516-2.516c.048,1.273,1.253,2.471,2.516,2.516ZM469.743,424.737l-1.067-1.989c-1.654-.955-12.183-12.654-12.968-12.232-1.205.647,1.364,2.081,1.08,2.34l-1.621-1.075c-.39.824,1.276,2.312,1.964,3.064,4.806,5.256,10.493,9.685,15.32,14.928,1.661-.322-.285-.883-.556-1.232-.486-.626-.671-1.363-1.239-2.014-4.099-4.692-9.385-8.428-13.506-13.13.36-.585.796.12,1.081.359,3.885,3.257,7.431,7.806,11.512,10.981ZM475.506,412.492c-1.53-3.268-7.289,2.621-4.5,4.319.316.001,3.219-4.465,4.5-4.319ZM581.689,422.575c.433-2.027,1.493-4.218,1.919-6.205.135-.632.429-.841-.297-1.349-.562,1.988-1.472,3.996-1.892,6.024-.075.363-.404,1.596.269,1.53ZM475.502,424.377l2.131-4.435-4.133-3.831c-.77-.175-2.351,3.002-2.343,3.776.012,1.249.919,1.274,1.249,1.961.162.337.321,2.319.576,2.889l-3.778-3.238c-.272-.056-.231.347-.173.531,1.246,3.977,8.029,11.458,11.332,14.226.404.339.585.873,1.261.715-3.125-4.81-4.422-10.854-8.997-14.576.814-.665,2.56,2.309,2.874,1.981ZM470.463,417.538c.119-.681-.42-1.198-1.076-1.076l1.076,1.076ZM471.906,422.934c-1.564-1.927-1.082-4.505-3.593-5.756-.114.897-.999,1.176-.562,2.15.161.359,3.789,3.943,4.155,3.606ZM600.41,417.9c-.199-.225-3.404,1.102-3.236,1.973.246,1.275,2.38-1.221,2.989-.891l.246-1.082ZM574.496,422.934c2.357.1,5.314-1.242,6.114-3.596l-3.122,2.454-2.992,1.142ZM596.81,420.42l-18.54,17.636c.636.773.781.205,1.267-.177,5.887-4.625,10.912-11.179,16.751-16.005l.522-1.454ZM476.94,425.096c-.426-.991,3.427-3.582,1.62-3.956-.646-.134-1.984,1.974-2.17,2.502-.239.679-.539,1.715.55,1.454ZM580.61,421.856v-.716h-.353v.716h.353ZM480.185,429.417c-.279-.109-1.325-.683-1.075.173,3.171,6.984,7.802,13.849,10.877,20.802.868,1.963-.152.993,1.547,2.762,4.592,4.783,9.613,9.1,14.206,13.879l-1.081-.359-34.556-33.139c-.271-.24-.437-.143-.714,0-1.044.537-2.938,3.338-4.307,4.019l14.54,14.201c.783.434,1.477.33,2.363.698-.589-.202-3.786,1.332-3.433,2.16l40.997,38.846,3.11-1.776-1.797-1.977c.722-.359,2.524,1.644,3.035,2.364,1.88,2.646,1.756,7.398,5.917,4.254l-.134-1.035-40.137-38.354c-.771-.449-1.35.568-1.445,1.275l-.523-.005-5.59-5.752c2.226.927,3.539,3.762,5.047,4.526.739.374,1.367-1.226,3.072-.224l40.344,38.506,2.284-1.954-3.232-3.241,1.435.542-11.805-23.287c-2.475-2.731-5.061-5.391-7.63-8.028.068.055.558.11.903.34.986.657,5.348,5.777,5.756,5.772l2.674-4.084-40.841-39.095c-.421-.161-1.381,1.365-1.545,1.677-1.639,3.117-.235,3.239,1.736,5.514ZM603.653,424.736c1.886.254,3.475-.548,4.67-1.978l-1.075-.364-3.595,2.342ZM580.596,422.581c-2.2.541-4.44,1.054-6.553,1.897-.414.165-1.233.121-.985.793.26.705.836.308,1.275.229,2.175-.392,4.431-1.472,6.641-1.849l-.378-1.071ZM572.693,423.661h-.716v.353h.716v-.353ZM476.942,426.535v-1.076h-.353v1.076h.353ZM558.295,427.979c-.247-.261-3.309,1.396-3.59,1.978-.079,1.232,2.77-.684,3.083-.857.539-.297.917-.689.507-1.121ZM482.343,443.453c-1.34-4.458-6.005-6.48-8.087-10.446l-4.689-4.303c-.633.585-1.261,1.564-.565,2.346l13.342,12.403ZM571.975,457.133c-1.492-4.975-6.567-13.415-9.171-18.365-1.56-2.964-3.142-6.243-5.041-8.9-.782-.066-6.02,4.898-7.03,5.843-7.206,6.741-14.395,13.757-21.422,20.692-1.405,1.387-8.32,7.849-8.314,9.189l13.548,26.814,2.515-1.435c-1.257,2.165-3.439,2.201-5.039,4.136-1.035,1.252-.841,2.129.54.9,1.898-1.69,3.753-3.458,5.578-5.221l-.717-.356c3.29-2.645,6.434-7.305,9.712-9.726.506-.374,1.048-.469.366.366-.53.648-1.271,1.152-1.801,1.8-.682.835-.141.74.366.366.982-.726,1.883-2.09,2.873-2.887l-.717-.356c3.169-2.548,6.195-7.034,9.352-9.366.506-.374,1.048-.469.366.366-.421.515-1.02.925-1.441,1.44-.682.835-.141.74.366.366.861-.636,1.644-1.827,2.513-2.527l-.717-.356c3.29-2.645,6.434-7.305,9.712-9.726.506-.374,1.048-.469.366.366-.421.515-1.02.925-1.441,1.44-.682.835-.141.74.366.366.861-.636,1.644-1.827,2.513-2.527l-.717-.356c.209-.558,2.036-1.806,2.518-2.341.065.218-.176.731.178.718.5-.714,3.548-3.098,3.42-3.772-.109-.573-.435-.489-.898-.187-1.215.794-1.782,2.224-2.7,3.241ZM475.862,432.656c-.044-.903-1.261-2.116-2.156-2.156l2.156,2.156ZM522.302,461.81c.727.156.961-.159,1.454-.522,1.805-1.327,5.156-4.889,7.012-6.666,7.11-6.806,14.091-13.738,21.238-20.517.627-.594,1.432-1.343,1.971-1.988,1.04-1.246.837-2.127-.54-.9-7.906,7.038-15.429,14.925-23.028,22.326-2.389,2.327-5.245,4.405-7.389,7.009-.334.406-.874.581-.718,1.259ZM560.453,432.655v-.716h-.353v.716h.353ZM478.306,435.604c-.094-.155-2.492-1.379-2.797-2.228-.127,1.484,1.537,2.222,2.341,3.236.698.29.673-.649.456-1.008ZM561.533,434.814v-.716h-.353v.716h.353ZM486.661,447.054c.032-1.369-1.808-2.843-1.993-3.944-.073-.434.468-.676.393-1.109-.36-2.069-1.876-2.263-2.897-3.223-.343-.323-2.903-3.037-3.054-2.881.031.601-.408.673-.041,1.26,1.031,1.643,4.195,3.662,5.434,5.401-1.024.487-1.645-1.411-2.514-1.621.575,2.644,2.689,4.476,4.672,6.119ZM562.612,436.974v-.716h-.353v.716h.353ZM464.527,438.422l-1.207,1.676,13.633,13.28,1.98-.921-14.407-14.035ZM575.217,442.733c.477.534,2.347-2.684,2.532-3.05.215-.423.465-.775-.2-.906-.796-.157-2.715,3.527-2.332,3.956ZM467.585,445.621l-3.596-2.524c.008,1.291-.567,5.959,1.791,4.869.354-.164,2.079-1.946,1.805-2.344ZM578.814,448.13c-.342-.394-2.467-5.877-3.238-5.034.412,1.374,1.317,3.4,2.061,4.586.41.653.338.501,1.176.448ZM463.264,447.052c-.21-.833.475-2.765-.353-3.236.212.83-.478,2.735.353,3.236ZM468.305,446.696c-.698-.331-3.333,2.599-1.978,2.511.159-.01,2.337-2.155,1.978-2.511ZM471.186,449.57l-1.979-2.149-3.773,3.773,5.578,5.132,3.388-3.381-1.596-1.929c-.713,3.079-4.705,2.909-3.971-.36l2.352-1.086ZM463.269,448.136l.002.533.896.898.533-.533-.898-.896-.533-.002ZM574.493,452.46c-2.036-.782-3.188-3.156-5.034-4.326l2.881,6.478c.448.343,2.491-1.672,2.153-2.152ZM438.452,452.431c1.047.634,3.094-3.352,1.16-3.886-1.45-.372-2.321,1.501-3.334,2.289.459.67,1.304.553,1.915.892.276.153.227.686.259.705ZM579.174,448.498l-1.068.258c.049,1.6-1.411,2.729-2.171,3.879-.307.464-.386.789.185.896,1.246.233,3.049-3.956,3.054-5.034ZM489.184,449.93c.175-.137-.629-.953-1.08-.713-.175.137.629.953,1.08.713ZM435.904,462.17c-.065-1.079,1.744-1.864,1.971-2.498.388-1.084-.819-2.687,1.258-4.537,2.045-1.822,4.713-.15,5.617-1.967.418-.841-2.15-2.972-2.726-2.709l-8.859,9.01c.036.691,2.22,3.068,2.74,2.7ZM438.07,463.249c-.186-.532-.476-.805-.201-1.423.418-.937,6.072-5.451,7.401-7.032.34-.404.873-.585.716-1.261-2,2.955-4.577.275-6.479,2.694-1.535,1.952.087,2.883-.161,3.43-.551,1.215-4.518,2.831-1.275,3.591ZM433.025,454.253c-4.439,1.912-2.291,5.806,1.431,2.66l-1.431-2.66ZM435.549,456.051v-.533s-1.074-.905-1.074-.905c-.087.663-.023,1.058.542,1.436l.533.002ZM451.028,459.647c.148-.545-.145-.596-.354-.9-.456-.663-3.8-3.849-4.453-3.737l-7.403,7.651,5.192,4.903c1.445-3.465,3.028-6.917,7.018-7.917ZM486.301,487.728c-1.94-3.13-6.737-5.71-8.638-8.456-.799-1.153-.807-2.318-1.602-3.437-2.376-3.347-7.499-6.275-10.094-9.697-1.168,1.746-5.331,4.543-6.141,6.116-.143.277-.24.443,0,.714l40.409,38.479,18.459-17.419-41.159-39.028c-.667.803-4.133,3.393-3.67,4.29l9.377,9.005c5.013,1.05,7.309,6.09,11.367,8.79,2.738,1.822,5.824,1.744,8.127,3.932,2.369,2.251,1.881,3.88,2.923,6.256.325.742,1.273,1.23,1.464,2.159.19.924-1.798,7.908-2.44,8.573l-8.468,2.687c-4.536-3.316-8.729-7.147-9.722-12.954,1-1.505,1.07-3.594,2.689-4.689-.78,1.893-1.82,2.592-1.826,4.86-.019,7.709,9.737,11.722,15.163,6.134,6.042-6.222.412-16.282-7.934-14.957l1.078-1.073c-4.5-.327-9.704,5.265-9.361,9.715ZM426.094,456.819c-.997.145-3.381,2.579-3.091,3.658l.849.97,3.777-3.424c-.076-.782-.795-1.311-1.535-1.204ZM430.509,460.37c-.3-1.354-1.544-2.542-2.875-1.794.3,1.354,1.544,2.542,2.875,1.794ZM407.116,472.617l2.492,3.102-3.207,3.55,1.973,1.973,20.311-19.921c-.541-.616-1.354-1.864-2.241-1.631l-3.263,2.816c-.761-.465-2.041-2.501-3.1-1.973l-12.966,12.084ZM455.708,463.248c-2.433-2.582-2.426-4.159-5.999-2.216-4.521,2.458-5.411,7.165-2.981,11.561.61.416,2.456-1.27,2.679-1.77.33-.739-1.726-2.824.714-5.778,1.599-1.936,3.21-1.913,5.586-1.797ZM438.43,467.208c-.676.158-.856-.376-1.261-.715-1.946-1.633-3.663-3.896-5.589-5.598l-1.783.738,10.435,10.099,1.412-.788-1.414-1.754.717-.356-2.525-2.695-.713-.003.72,1.073ZM429.251,462.178l-19.952,19.301,10.305,10.171,20.241-19.266-10.594-10.206ZM520.136,466.131c-.11-1.389,1.206-2.145,1.803-3.062.3-.462.4-.786-.184-.895-.763-.143-1.959,1.852-2.165,2.508-.218.696-.566,1.697.546,1.45ZM444.55,468.296c-2.546-.358-3.697-3.897-6.119-4.68,1.036,1.035,4.476,5.214,5.573,5.406.69.121.596-.178.547-.726ZM455.706,464.694c-3.099-.778-6.904,1.676-5.048,4.869l.908-.194c-.035-3.55,3.361-2.375,4.14-4.675ZM457.146,465.77l-.002-1.076h-.352s-.364,1.074-.364,1.074l.718.002ZM458.231,469.011l1.77-1.669-1.239-1.567-.532,3.236ZM456.613,466.493c-.855.201-.217,2.797-1.973,3.43-.24.086-3.582.636-2.178,1.433,1.558.885,4.363-.74,4.884-2.324.214-.653.413-2.807-.733-2.538ZM520.453,466.542l-1.03.127c4.334,8.382,8.734,16.729,13.015,25.139l1.379.957-13.364-26.224ZM453.907,467.215h-.716v.353h.716v-.353ZM461.466,468.293l-3.603,2.693-6.706,6.608c-1.083.211-3.361-2.863-4.268-3.537l-18.019,17.274c-.24.271-.142.436,0,.714.695,1.35,4.356,3.209,5.215,4.912.207,1.183-8.513,7.416-8.934,9.022-.329,1.252,3.298,3.031,3.915,4.261l28.996-27.563c.537-1.183-1.573-3.603-1.974-4.869-1.207-3.813,2.623-5.814,4.661-8.256.338-.405.872-.583.718-1.259ZM454.986,468.653l-.718.002.542.715.176-.716ZM483.423,469.375c-3.11.738-5.617,3.822-6.474,6.833l2.332-3.242,4.142-3.591ZM493.503,477.645c.147-.544-.144-.596-.354-.9-.672-.972-7.321-7.38-8.037-7.318-3.591,1.488-6.825,4.472-7.717,8.353,2.201,2.952,5.524,5.305,8.01,8.141,1.643-3.529,4.168-7.093,8.098-8.277ZM441.88,471.55c-.269.082-.663.528-.568.874l3.006,2.317.945-.87c-.952-.755-2.009-2.737-3.383-2.321ZM454.628,472.254c-1.806.45-4.665-1.508-5.039,1.071l2.65,1.42,2.389-2.491ZM431.47,487.609c3.162-3.098,6.099-6.508,9.29-9.608,2.724-2.647,3.977-1.747.186-5.231l-20.356,19.282c-.24.271-.143.437,0,.714.15.292,4.367,4.589,4.695,4.6,3.228-1.608-.142-2.895,1.686-5.797,1.216-1.93,3.286-2.772,4.498-3.959ZM447.791,473.332l3.057,3.592c2.309-1.905-1.168-3.466-3.057-3.592ZM460.748,481.969c-.094-.069-.55-.109-.903-.34-.684-.449-1.144-1.498-1.973-1.819.191,1.01.831,2.244,1.437,3.059,3.519,4.728,10.086,8.579,13.678,13.495-.675.157-.857-.375-1.261-.715-4.147-3.498-8.106-8.25-12.239-11.877l-2.293,3.844,40.631,38.812.706.168,1.805-3.422-26.987-26.267,1.081.359,24.296,23.218c.223-.764-.68-2.272-1.104-2.855-1.257-1.73-3.946-4.061-5.557-5.781.068.055.558.11.903.34,1.467.978,2.841,3.391,4.492,4.339-.324-1.729,2.601-3.338,1.996-4.672l-40.151-38.363c-1.073-.552-3.071,2.874-2.822,3.908.073.304,3.634,3.891,4.265,4.572ZM404.587,480.887c.078-1.395,3.248-3.055,3.261-4.136.039-3.136-7.838,2.994-3.261,4.136ZM405.854,479.816l-1.204,1.922,1.913,1.672,1.203-1.624-1.912-1.97ZM457.864,484.129l-27.176,26.273c-.467.347-.873.84-.179,1.264.73.447,2.245-2.118,3.222-2.181,6.838-6.979,13.947-13.885,21.236-20.518l2.897-4.838ZM456.608,488.094l-24.979,24.578,40.768,38.741,25.04-24.221-40.829-39.098ZM506.821,489.53c-1.02-.185-.591.245-.81.789-.813,2.022-1.537,4.581-1.705,6.766.544-.004.667-1.082.812-1.522.645-1.956,1.242-4.026,1.702-6.034ZM427.638,492.41l-.565,2.161c2.137.808,3.47,5.015,5.783,2.878l-4.317-4.69-.901-.349ZM523.379,492.409c-.383-.343-3.413,1.044-3.236,1.972.122.641.443.45.89.181.307-.185,2.841-1.71,2.346-2.154ZM422.232,498.887c-1.158-.541-1.53-1.003-2.516-1.8l1.801,3.958,1.395-.952c.069-.383-.451-.869-.68-1.206.411.192.886.257,1.265.632l1.229-1.482-5.194-4.902-.85,1.898c1.032,1.423,2.561,2.395,3.55,3.855ZM496.385,497.443c2.466.187,5.931-.672,6.834-3.236l-3.11,2.106-3.724,1.13ZM519.779,494.929c-.23-.258-2.909,2.036-3.243,2.333-3.786,3.361-6.929,7.548-10.983,10.614-.495.74-4.589,4.175-4.314,4.689.45.837.883.119,1.266-.178,1.419-1.099,3.618-3.333,5.042-4.677,3.14-2.964,6.079-6.169,9.164-9.193,1.057-1.036,3.144-1.82,3.067-3.588ZM503.579,496.365v-.716h-.353v.716h.353ZM427.273,496.369c-.303,1.723,1.387,2.462,2.338,3.591l.893-.893c-.42-.302-2.793-3.195-3.231-2.698ZM531.298,496.729c-.254-.238-3.23,1.43-3.883,1.709-.52.223-.984-.229-.793.806,1.017.838,5.444-1.799,4.676-2.516ZM503.942,498.164c.099-.455-.153-.921-.595-1.038-.483-.128-5.713,1.368-6.445,1.738-.518.262-1.023.334-.876,1.1l7.916-1.8ZM422.592,502.483c.826.016,1.047-.715,1.981-.759,1.529-.072,2.833,1.845,4.089-1.15l-1.931-2.4-4.139,4.309ZM495.662,498.17h-.716v.353h.716v-.353ZM420.8,507.152l1.427.216,3.958-4.343c-1.444-2.897-6.143,3.111-5.385,4.126ZM420.429,506.805c-.344-1.658,1.123-2.243,1.44-3.599l-2.49,2.388,1.05,1.211ZM424.392,514.004c-.394-.197-.96-.169-1.262-.719l-.356.718-1.62-1.62.721-.351c-1.202-.811-.338-2.474-.557-3.086-.06-.167-2.357-2.447-2.53-2.486-.559-.126-1.126.887-1.186,1.332-.166,1.222,2.458,2.836,3.189,3.875l-1.62-.9c-.272-.056-.231.347-.173.531,1.987,6.306,5.477,7.467,8.822,11.697,1.51,1.91,2.452,4.403,4.847,5.768l-6.045-12.129c-.657-.955-1.497-1.736-2.23-2.629.601.3,1.178.318,1.62,1.073l2.353-3.772-4.153-4.494-2.35,4.12c.063.626,1.95,2.366,2.53,3.073ZM426.913,515.802l3.231-3.058-.893-.892c-.519-.009-2.381,3.146-2.338,3.949ZM499.216,516.835c.124-.088,1.098-2.046,1.485-2.652.448-.702.543-.655-.179-1.251-.775.054-3.676,5.58-1.307,3.904ZM427.988,517.602v-.716h-.353v.716h.353ZM501.783,522.28c-.206-.41-2.491-5.466-3.238-4.674.216.838,2.051,5.607,3.238,4.674ZM502.143,523.007l-1.087.236-2.151,4.798c2.114-.582,2.785-3.169,3.238-5.034ZM498.003,528.05l-24.841,24.469,1.266-.178c5.717-5.559,11.374-11.187,17.086-16.749,1.423-1.386,6.107-5.013,6.855-6.464.288-.559-.135-1.087-.367-1.078ZM471.155,556.81c-.259-1.555,2.689-2.78,1.292-3.924-.666.421-2.888,3.425-2.338,3.95l1.046-.026ZM478.384,571.594c.547-.502-6.348-11.756-6.757-13.217l-1.159-.817,6.741,13.584c-.023.632,1.077.539,1.174.45Z"/>
  <path d="M128.505,99.345c-.233-.034-.736-.125-.718.178.934.82,1.699,1.78,2.518,2.701-1.65-.24-5.867-5.807-7.558-7.021l.717-.356c-1.054-.937-1.938-2.022-2.878-3.061.588.085.66.213,1.09.517,1.817,1.286,5.211,5.22,6.829,7.042Z"/>
  <path d="M141.824,183.573c-1.379-.204-6.549-6.172-7.919-7.559,2.72,2.191,5.735,4.698,7.919,7.559Z"/>
  <path d="M24.837,0c.789.994,1.673,1.936,2.52,2.88-.233-.034-.736-.126-.718.178.934.82,1.699,1.78,2.518,2.701-1.445-.21-4.873-4.542-6.119-5.759h1.8Z"/>
  <path d="M89.63,62.271c-.233-.034-.736-.126-.718.178.934.82,1.699,1.78,2.518,2.701-1.65-.24-5.867-5.807-7.558-7.021l.717-.356c-1.054-.937-1.938-2.022-2.878-3.061.588.085.66.213,1.09.517,1.817,1.286,5.211,5.22,6.829,7.042Z"/>
  <path d="M545.338,369.666c-1.699-.629-6.508-5.887-7.919-7.559.588.086.659.212,1.09.517,1.5,1.062,5.61,5.472,6.829,7.042Z"/>
  <path d="M133.905,176.014c-2.948-2.375-4.898-4.501-7.559-7.199,2.949,2.376,4.896,4.503,7.559,7.199Z"/>
  <path d="M97.189,69.47c-.233-.034-.736-.126-.718.178,1.053.939,1.939,2.021,2.878,3.061-.588-.085-.66-.213-1.09-.517-1.817-1.286-5.211-5.22-6.829-7.042.233.034.736.126.718-.178-.934-.82-1.699-1.78-2.518-2.701.588.085.66.213,1.09.517,1.768,1.251,4.884,4.924,6.47,6.682Z"/>
  <path d="M261.69,247.284c-1.003-.584-1.421-1.108-1.8-2.16.808.571,1.647,1.108,1.8,2.16Z"/>
  <path d="M113.027,84.588c-.233-.034-.736-.126-.718.178.934.82,1.699,1.78,2.518,2.701-.588-.085-.66-.213-1.09-.517-1.817-1.286-5.211-5.22-6.829-7.042.233.034.736.126.718-.178-.934-.82-1.699-1.78-2.518-2.701.588.085.66.213,1.09.517,1.817,1.286,5.211,5.22,6.829,7.042Z"/>
  <path d="M468.667,489.528c-2.942-2.37-5.306-4.735-7.919-7.559,3.129,2.298,5.202,4.805,7.919,7.559Z"/>
  <path d="M34.916,10.079c-.233-.034-.736-.126-.718.178,1.053.939,1.939,2.021,2.878,3.061-.588-.085-.66-.213-1.09-.517-1.817-1.286-5.211-5.22-6.829-7.042.233.034.736.126.718-.178-.936-.816-1.696-1.785-2.518-2.701.588.085.66.213,1.09.517,1.768,1.251,4.884,4.924,6.47,6.682Z"/>
  <path d="M259.171,244.404c.434.373.251-.583.72.72-.296-.209-.6-.329-.72-.72Z"/>
  <path d="M463.267,551.079c-2.949-2.375-4.897-4.502-7.559-7.199,2.929,2.36,4.933,4.46,7.559,7.199Z"/>
  <path d="M105.108,77.029c-.233-.034-.736-.126-.718.178.934.82,1.699,1.78,2.518,2.701-.588-.085-.66-.213-1.09-.517-1.768-1.251-4.884-4.924-6.47-6.682.233.034.736.126.718-.178-1.053-.939-1.939-2.021-2.878-3.061.588.085.66.213,1.09.517,1.817,1.286,5.211,5.22,6.829,7.042Z"/>
  <path d="M495.664,444.175c-2.949-2.375-4.897-4.501-7.559-7.199,2.949,2.375,4.897,4.501,7.559,7.199Z"/>
  <path d="M126.346,168.815c-2.832-2.281-5.503-4.713-7.919-7.559,1.369.197,6.557,6.178,7.919,7.559Z"/>
  <path d="M42.835,17.637c-.233-.034-.736-.126-.718.178l2.516,2.523c.057.267-.376.245-.533.175-.845-.378-5.995-6.056-7.024-7.196.233.034.736.126.718-.178-1.053-.939-1.939-2.021-2.878-3.061.588.085.66.213,1.09.517,1.858,1.315,5.158,5.195,6.829,7.042Z"/>
  <path d="M503.583,451.734c-3.07-2.473-5.147-4.75-7.919-7.559,3.07,2.473,5.148,4.749,7.919,7.559Z"/>
  <path d="M488.105,436.976c-2.852-2.297-5.46-4.721-7.919-7.559,2.11.827,6.083,5.698,7.919,7.559Z"/>
  <path d="M455.708,543.88c-3.07-2.473-5.147-4.75-7.919-7.559,3.07,2.473,5.147,4.75,7.919,7.559Z"/>
  <path d="M571.615,439.855c-3.022-2.221-4.937-4.55-7.559-7.199,2.757,2.221,5.148,4.49,7.559,7.199Z"/>
  <path d="M81.711,54.712c-.233-.034-.736-.126-.718.178l2.516,2.523c.057.267-.376.245-.533.175-.851-.38-5.989-6.052-7.024-7.196.233.034.736.126.718-.178l-2.516-2.523c-.057-.267.376-.245.533-.175.851.38,5.989,6.052,7.024,7.196Z"/>
  <path d="M447.789,536.321c-2.949-2.375-4.897-4.502-7.559-7.199,2.949,2.375,4.897,4.501,7.559,7.199Z"/>
  <path d="M50.754,25.196c-.233-.034-.736-.126-.718.178.934.82,1.699,1.78,2.518,2.701-1.65-.24-5.867-5.807-7.558-7.021l.717-.356c-1.054-.937-1.938-2.022-2.878-3.061.588.085.66.213,1.09.517,1.817,1.286,5.211,5.22,6.829,7.042Z"/>
  <path d="M440.23,529.122c-2.935-2.364-5.322-4.728-7.919-7.559,3.115,2.173,5.255,4.86,7.919,7.559Z"/>
  <path d="M120.586,91.787c-.233-.034-.736-.126-.718.178l2.516,2.523c.057.267-.376.245-.533.175-.82-.366-6.027-6.074-7.024-7.196.233.034.736.126.718-.178-.934-.82-1.699-1.78-2.518-2.701,1.264.183,6.36,5.874,7.559,7.199Z"/>
  <path d="M492.064,511.845c-3.07-2.473-5.147-4.75-7.919-7.559,2.952,2.378,5.285,4.747,7.919,7.559Z"/>
  <path d="M484.145,504.286c-2.949-2.375-4.897-4.501-7.559-7.199,2.949,2.375,4.897,4.502,7.559,7.199Z"/>
  <path d="M58.313,32.395c-.233-.034-.736-.126-.718.178,1.053.939,1.939,2.021,2.878,3.061-.588-.085-.66-.213-1.09-.517-1.817-1.286-5.211-5.22-6.829-7.042.233.034.736.126.718-.178-.934-.82-1.699-1.78-2.518-2.701.588.085.66.213,1.09.517,1.768,1.251,4.884,4.924,6.47,6.682Z"/>
  <path d="M476.586,497.087c-3.07-2.473-5.148-4.749-7.919-7.559,3.07,2.473,5.147,4.75,7.919,7.559Z"/>
  <path d="M223.175,206.25c.216.022.45-.075.655.065.187.184.011.548.065.655-.226-.216-.568-.597-.72-.72Z"/>
  <path d="M66.232,39.954c-.233-.034-.736-.126-.718.178.934.82,1.699,1.78,2.518,2.701-.588-.085-.66-.213-1.09-.517-1.768-1.251-4.884-4.924-6.47-6.682.233.034.736.126.718-.178-1.053-.939-1.939-2.021-2.878-3.061.588.085.66.213,1.09.517,1.817,1.286,5.211,5.22,6.829,7.042Z"/>
  <path d="M511.502,459.292c-3.07-2.472-5.148-4.749-7.919-7.559,3.061,2.466,5.164,4.731,7.919,7.559Z"/>
  <path d="M417.553,494.207c-.58-.062-.675-.215-1.09-.517-1.793-1.307-5.286-5.222-6.83-7.041,1.4.55,6.943,6.112,7.919,7.559Z"/>
  <path d="M370.758,298.756c-1.57,1.515-3.117,3.139-4.679,4.679,1.699-2.389,2.383-2.965,4.679-4.679Z"/>
  <path d="M66.232,39.954c1.65.24,5.867,5.807,7.558,7.021l-.717.356c1.054.937,1.938,2.022,2.878,3.061-.588-.085-.66-.213-1.09-.517-1.817-1.286-5.211-5.22-6.829-7.042.233.034.736.126.718-.178-.934-.82-1.699-1.78-2.518-2.701Z"/>
  <path d="M364.279,305.595c.789-1.18.766-1.141,1.8-2.16-.773,1.086-.908,1.197-1.8,2.16Z"/>
  <path d="M0,3.959c.711-.008.998.487,1.445.893,5.157,4.682,10.259,9.744,15.302,14.575,4.801,4.599,9.623,9.23,14.209,14.044l-1.261-.715L1.445,5.572l-1.445-.893v-.72Z"/>
  <polygon points="84.23 0 84.227 .719 83.511 0 84.23 0"/>
  <path d="M556.857,480.529c1.905-1.788,4.194-4.333,7.054-4.651,4.321-.481,1.925,2.815,2.062,4.119.058.558,1.459.929,1.342,2.134-.126,1.292-2.874,2.192-2.537,3.796,1.721.728,3.358-1.532,4.219-1.749.795-.2,1.442.494,2.244.146,1.165-.505,6.436-6.702,8.112-8.115.404-.34.586-.873,1.261-.715l-9.188,9.347-.169.721c1.05.399,5.508,4.596,5.706,5.304.509,1.82-3.548,3.348-2.113,4.246,2.066.677,3.343-2.101,5.146-1.562.44.131,6.364,6.008,6.559,6.424.9,1.921-2.559,3.109-2.341,4.127.384,1.787,3.824-1.44,4.596-.446.114,2.885,3.758,11.078-1.495,11.034-1.441-.012-8.822-.882-9.851-1.315-.476-.2-3.203-2.763-3.837-3.362-3.337-3.149-6.794-6.746-9.932-10.045l6.116,5.399c-.43-5.472,2.714-10.563,6.457-14.267l-6.323-6.208c-3.86,1.944-8.769,11.168-6.249,15.076-.598-.629-3.391-3.147-3.962-3.441-.278-.143-.443-.239-.715,0l-19.625,19.274c-3.975,3.36,1.827,6.383,1.12,10.093-.36,1.892-2.897,4.522-4.354,5.75-.404.34-.586.873-1.261.716l4.994-6.019c-1.194-3.549-4.721-6.436-1.477-10.078l20.599-20.436c-1.507-.418-2.814-3.123-3.967-3.608-.951-.4-3.123,1.346-4.319.017-1.435-4.342,2.64-8.182,5.408-10.985-.542,1.513-1.582,1.711-2.183,3.037-2.764,6.107,2.593,8.082,6.139,11.721-.59-5.663,3.001-10.485,6.468-14.539l-4.838-4.183c-1.846.575-3.161,2.632-4.865,3.244ZM563.657,476.607l-1.04-.035.002.533.902.902.533.002-.397-1.401ZM565.492,476.569c-.904-.973-1.074,2.543-.175,2.878.389-.365.378-2.659.175-2.878ZM552.894,488.448l-.175-2.518-.933,1.931,1.107.587ZM562.612,497.807l1.8-11.878c-2.215,2.943-5.885,9.151-1.8,11.878ZM566.935,486.292c-2.367-.079-2.326,2.084-2.516,3.954l2.516-3.954ZM553.254,489.533l-2.155-.723c-.354,1.601,1.443,1.9,2.155.723ZM550.741,490.608c-.31,1.606,3.211,1.259,3.229.54.021-.823-2.667.278-3.229-.54ZM585.992,500.66c.185-.498-.128-.59-.331-.882-.553-.797-5.01-5.021-5.777-5.409-1.573-.795-5.373,5.688-5.922,7.044-1.967,4.85-1.696,7.322,2.688,10.43,1.094-5.086,5.498-8.19,9.342-11.184ZM572.333,506.804l1.798-11.516c-1.933,2.278-4.629,7.682-3.154,10.537.278.538.655,1.095,1.356.979ZM576.654,495.651c-2.249-.291-2.301,2.242-2.516,3.954l2.516-3.954ZM583.134,504.289c-.386-.391-2.04,1.456-2.344,1.792-1.489,1.644-2.897,3.829-3.347,6.024.03,1.512,3.246,1.183,4.251,1.176-2.559-2.858-.111-6.281,1.44-8.992ZM587.74,513.926l1.873-2.626-1.084-7.014c-2.025.784-5.104,8.29-3.355,9.388l2.566.252ZM584.212,513.642c-.241-1.226-.972-2.089-1.083-3.42-.168-2.01.909-3.621.546-5.575-2.12,2.605-4.101,8.07.537,8.995ZM586.373,505.009l-1.785.012c-.149,1.867-1.075,3.435-.731,5.382l2.516-5.394ZM588.537,514.004c.137.175.953-.629.713-1.08-.137-.175-.953.629-.713,1.08Z"/>
  <path d="M556.857,480.529c-.228.214-.495.492-.72.72.059-.164-.106-.573.02-.7s.536.039.7-.02Z"/>
  <path d="M241.893,69.83c-.456-.44-1.268-.741-1.805-1.256-1.711-1.645-3.329-3.392-5.033-5.044.36-.585.796.12,1.081.359,1.636,1.372,2.908,3.259,4.673,4.502l.166-4.338-6.826-6.396c-1.834,1.553-2.901,2.304-.538,4.077.057.267-.376.245-.533.175-1.272-.569-4.601-4.978-5.944-6.113l3.774,3.148c1.803-.824,2.512-2.915,4.863-2.428l-.715.891c1.619.917,5.081,5.396,6.301,5.941.157.07.59.092.533-.175-1.395-1.62-3.346-3.051-4.678-4.681-.682-.835-.141-.74.366-.366.891.658,5.194,4.969,5.701,5.816,1.247,2.083,1.812,4.782,2.76,6.96.331.759,2.04,2.858,2.906,4.653.305.632,1.645,1.481,1.048,2.192-3.064-2.246-5.395-5.305-8.101-7.917.441.584.653-.005.721-.534.173-1.356.258-4.098-.543-5.224l-.178,5.757ZM244.771,68.748h-1.077c-.075,1.188-.076,2.408.9,3.24l.177-3.24ZM246.568,72.709c.24-.451-.576-1.254-.713-1.08-.24.451.576,1.254.713,1.08ZM247.65,74.507c.366-.362-.703-1.445-1.076-1.076-.366.362.703,1.445,1.076,1.076Z"/>
  <path d="M510.062,544.96c-.09.067-.717-.054-1.047.198-.853.652-1.428,1.849-2.553,1.958,1.114-1.561,4.307-4.598,6.279-4.327,1.677.23,2.669,4.953,3.972,6.089,2.428-.997,3.827-3.364,5.766-4.998.404-.34.586-.873,1.261-.715-1.804,1.843-5.142,6.202-7.773,6.473-2.151.221-4.508-3.264-5.905-4.677l2.516,1.8-1.091-2.871c-1.356-.442-1.245.937-1.425,1.071ZM515.1,548.558c.261-.286-2.216-5.378-2.876-4.676.031.596,2.187,5.429,2.876,4.676Z"/>
  <path d="M598.252,471.174c-1.365,1.696-3.46,4.197-5.907,3.953-1.679-.168-5.412-4.771-6.102-4.65-1.832,1.343-3.152,3.79-5.269,4.65,1.975-2.002,5.294-6.398,8.194-6.77.609-.078.839-.18,1.348.29.692.639,2.41,5.535,3.271,5.741l4.465-3.213ZM589.973,472.607c-.348-.62-1.535-3.4-2.334-3.234-1.734.36,1.943,3.632,2.334,3.234ZM591.417,474.409c.669-.215.715-.449.562-1.084-.158-.655-2.071-4.746-3.086-3.951l2.524,5.035Z"/>
  <path d="M633.888,424.021c-4.859,6.085-11.989,10.867-16.927,16.725-4.031,4.782-1.169,3.983.285,8.37.315.95.5,1.21.3,2.268-.429,2.278-5.003,6.692-6.874,8.269-.404.34-.586.873-1.261.715,1.292-2.212,6.958-6.041,7.408-8.273.35-1.733-3.284-4.929-2.647-8.018.606-2.943,7.529-8.431,9.827-10.693,2.775-2.732,5.719-6.195,8.629-8.649.404-.341.586-.872,1.261-.715Z"/>
  <path d="M506.102,547.483c-3.301,3.946-7.325,7.236-10.988,10.785-2.814,2.727-5.698,6.179-8.629,8.649-.404.34-.586.873-1.261.715,3.301-3.946,7.325-7.236,10.988-10.785,2.814-2.727,5.698-6.179,8.629-8.649.404-.34.586-.873,1.261-.715Z"/>
  <path d="M609.051,460.736c-3.016,2.961-5.968,6.65-9.178,9.356-.404.34-.586.873-1.261.715,3.016-2.961,5.968-6.65,9.178-9.356.404-.34.586-.873,1.261-.715Z"/>
  <path d="M534.539,532.725c-3.016,2.961-5.968,6.65-9.178,9.356-.404.34-.586.873-1.261.715,3.016-2.961,5.968-6.65,9.178-9.356.404-.34.586-.873,1.261-.715Z"/>
  <polygon points="69.832 70.546 68.571 69.831 31.317 33.839 32.577 34.554 69.832 70.546"/>
  <polygon points="93.229 92.863 91.969 92.147 70.192 70.913 71.453 71.629 93.229 92.863"/>
  <polygon points="132.105 129.937 130.844 129.222 109.068 107.988 110.328 108.703 132.105 129.937"/>
  <polygon points="108.708 107.621 107.447 106.905 93.589 93.23 94.85 93.945 108.708 107.621"/>
  <path d="M610.49,368.942c-.675.157-.857-.375-1.261-.715-1.881-1.585-3.533-3.609-5.218-5.397.675-.157.857.375,1.261.715,1.881,1.585,3.533,3.609,5.218,5.397Z"/>
  <path d="M625.969,383.7c-.675.157-.857-.375-1.261-.715-1.881-1.585-3.533-3.609-5.218-5.397.675-.157.857.375,1.261.715,1.881,1.585,3.533,3.609,5.218,5.397Z"/>
  <path d="M633.528,390.899c-.675.157-.857-.375-1.261-.715-1.752-1.477-3.299-3.361-4.858-5.037.675-.157.857.375,1.261.715,1.752,1.477,3.299,3.361,4.858,5.037Z"/>
  <path d="M602.571,361.383c-.675.157-.857-.375-1.261-.715-1.752-1.477-3.299-3.361-4.858-5.037.675-.157.857.375,1.261.715,1.752,1.477,3.299,3.361,4.858,5.037Z"/>
  <path d="M618.05,376.141c-.675.157-.857-.375-1.261-.715-1.752-1.477-3.299-3.361-4.858-5.037.675-.157.857.375,1.261.715,1.752,1.477,3.299,3.361,4.858,5.037Z"/>
  <path d="M98.989,14.754c-.675.157-.857-.375-1.261-.715-1.752-1.477-3.299-3.361-4.858-5.037.675-.157.857.375,1.261.715,1.752,1.477,3.299,3.361,4.858,5.037Z"/>
  <path d="M145.783,59.388c-.675.157-.857-.375-1.261-.715-1.752-1.477-3.299-3.361-4.858-5.037.675-.157.857.375,1.261.715,1.752,1.477,3.299,3.361,4.858,5.037Z"/>
  <path d="M106.908,22.313c-.675.157-.857-.375-1.261-.715-1.752-1.477-3.299-3.361-4.858-5.037.675-.157.857.375,1.261.715,1.752,1.477,3.299,3.361,4.858,5.037Z"/>
  <path d="M122.386,37.071c-.675.157-.857-.375-1.261-.715-1.752-1.477-3.299-3.361-4.858-5.037.675-.157.857.375,1.261.715,1.752,1.477,3.299,3.361,4.858,5.037Z"/>
  <path d="M137.864,51.829c-.675.157-.857-.375-1.261-.715-1.752-1.477-3.299-3.361-4.858-5.037.675-.157.857.375,1.261.715,1.752,1.477,3.299,3.361,4.858,5.037Z"/>
  <path d="M161.262,74.146c-.675.157-.857-.375-1.261-.715-1.752-1.477-3.299-3.361-4.858-5.037.675-.157.857.375,1.261.715,1.752,1.477,3.299,3.361,4.858,5.037Z"/>
  <path d="M91.07,7.195c-.675.157-.857-.375-1.261-.715-1.624-1.368-3.066-3.112-4.498-4.677.675-.157.857.375,1.261.715,1.624,1.368,3.066,3.112,4.498,4.677Z"/>
  <path d="M153.342,66.587c-.675.157-.857-.375-1.261-.715-1.624-1.368-3.066-3.112-4.498-4.677.675-.157.857.375,1.261.715,1.624,1.368,3.066,3.112,4.498,4.677Z"/>
  <path d="M114.467,29.512c-.675.157-.857-.375-1.261-.715-1.624-1.368-3.066-3.112-4.498-4.677.675-.157.857.375,1.261.715,1.624,1.368,3.066,3.112,4.498,4.677Z"/>
  <path d="M129.945,44.27c-.675.157-.857-.375-1.261-.715-1.624-1.368-3.066-3.112-4.498-4.677.675-.157.857.375,1.261.715,1.624,1.368,3.066,3.112,4.498,4.677Z"/>
  <path d="M131.025,40.311c-1.329-.292-2.39-1.886-3.239-2.872,1.329.292,2.39,1.886,3.239,2.872Z"/>
  <path d="M376.055,344.179c4.953-1.483,3.948,6.663-.526,4.699-2.323-1.02-1.332-4.143.526-4.699ZM375.885,345.996c-1.966,3.024,2.81,3.385,2.825.813.01-1.738-1.657-1.454-2.825-.813Z"/>
  <path d="M339.081,219.564c-.675.157-.857-.375-1.261-.715-1.881-1.585-3.533-3.609-5.218-5.397.675-.157.857.375,1.261.715,1.881,1.585,3.533,3.609,5.218,5.397Z"/>
  <path d="M331.522,212.365c-.675.157-.857-.375-1.261-.715-1.881-1.585-3.533-3.609-5.218-5.397.675-.157.857.375,1.261.715,1.881,1.585,3.533,3.609,5.218,5.397Z"/>
  <path d="M347,227.123c-.675.157-.857-.375-1.261-.715-1.881-1.585-3.533-3.609-5.218-5.397.675-.157.857.375,1.261.715,1.881,1.585,3.533,3.609,5.218,5.397Z"/>
  <path d="M406.119,318.108c-2.677-5.266,6.28-5.965,4.796-1.337-.664,2.071-3.082,2.226-4.796,1.337ZM408.796,315.05c-.784.023-1.664.558-1.902,1.332l.022,1.084.817.675c1.293.323,3.315-1.08,2.452-2.474-.379-.373-.842-.633-1.389-.617Z"/>
  <path d="M284.366,220.29c.495.461-1.596,2.889-2.516,2.516-.247-1.544.949-2.762,2.516-2.516Z"/>
  <path d="M299.124,217.41c.033,1.528-.906,2.801-2.516,2.516-.404-.361,1.453-3.071,2.516-2.516Z"/>
  <path d="M294.629,209.498c1.383.062-.512,2.844-1.444,2.862-1.591-.771.884-2.887,1.444-2.862Z"/>
  <path d="M307.045,222.444c-1.197-.184-2.156-1.635-2.879-2.513,1.197.184,2.156,1.635,2.879,2.513Z"/>
  <path d="M314.604,229.643c-1.065-.083-1.922-1.378-2.519-2.153,1.065.083,1.922,1.378,2.519,2.153Z"/>
  <path d="M322.523,237.202c-1.065-.083-1.922-1.378-2.519-2.153,1.065.083,1.922,1.378,2.519,2.153Z"/>
  <path d="M302.362,218.126c-.73-.54-1.198-2.017-1.433-2.875.728.535,1.198,2.016,1.433,2.875Z"/>
  <path d="M220.916,174.285c1.375-.303,2.742.194,3.505,1.384,2.488,3.886-2.847,8.23-3.94,11.867-2.7,1.632-5.383-2.488-5.212-4.819.113-1.543,3.965-8.061,5.647-8.431ZM224.223,177.052c.126-1.145-1.481-2.584-2.485-1.953-.357.224-3.481,5.333-3.239,5.595l5.724-3.641ZM216.695,181.41c.747.16.838-.359,1.151-.825.866-1.289,1.749-3.148,2.445-4.57-1.682,1.353-2.62,3.513-3.596,5.396ZM224.611,177.454l-6.791,4.56c-.51,1.518,1.213,3.529,2.296,4.433.84-1.334,5.356-7.834,4.496-8.992ZM217.414,182.13h-1.077c-.155,1.766-.037,2.743,1.242,3.978.748.722,2.559,1.565,1.635.166-.864-1.307-2.193-2.133-1.801-4.144Z"/>
  <path d="M250.403,156.345c.484.524,1.541,1.72,1.052,2.413-.212.3-6.404,2.432-6.906,2.482-3.163.309-6.875-3.386-3.72-5.546s6.895-2.253,9.574.652ZM250.53,158.735c.542-1.523-4.105-4.396-4.675-3.959l-.314,1.217c.802.569,4.066,3.613,4.989,2.743ZM245.132,155.141c-.415-.33-4.148,1.143-4.319,2.153,1.49-.623,3.91-.394,4.319-2.153ZM240.453,158.021c.795,3.629,5.717,2.855,7.912.895-2.29-2.888-4.927-1.981-7.912-.895Z"/>
  <rect x="156.224" y="87.831" width=".716" height=".353"/>
  <rect x="144.347" y="99.347" width=".353" height=".716"/>
  <polygon points="529.14 489.524 527.879 488.809 506.103 467.575 507.363 468.29 529.14 489.524"/>
  <polygon points="412.153 397.018 410.892 396.303 373.638 360.311 374.898 361.026 412.153 397.018"/>
  <polygon points="435.55 419.335 434.29 418.619 412.513 397.385 413.774 398.101 435.55 419.335"/>
  <polygon points="451.029 434.093 449.768 433.377 435.911 419.702 437.171 420.417 451.029 434.093"/>
  <path d="M355.534,281.916c1.007-.232,2.212-.162,3.14.306,2.421,1.748-1.304,5.92-4.583,4.942-2.03-.605-1.037-4.677,1.443-5.248ZM357.799,282.557c-3.774-1.041-5.766,5.129-1.702,4.258,2.456-.526,1.734-2.417,1.702-4.258ZM358.516,284.356v-.716h-.353v.716h.353Z"/>
  <path d="M343.486,277.434c-2.591-3.722,4.271-7.338,5.86-3.865,1.053,2.303-3.677,5.723-5.86,3.865ZM348.08,273.203c-6.429-1.027-4.47,6.896-.515,3.247.959-.885-.374-2.068.515-3.247Z"/>
  <path d="M365.986,291.273c4.781-.936,3.981,4.869.185,5.607-4.584.891-4.076-4.845-.185-5.607ZM367.88,292.276c-5.23-.999-5.612,6.405-.081,3.165l.081-3.165ZM368.594,294.075v-1.076h-.353v1.076h.353Z"/>
  <path d="M333.794,263.952c2.966-3.355,8.625.29,3.835,3.654-3.283,2.305-6.317-.847-3.835-3.654ZM334.131,267.352c.8.788,2.896.476,3.542-.427,1.857-6.915-5.83-1.828-3.542.427ZM338.718,265.279v-.716h-.353v.716h.353Z"/>
  <path d="M494.222,479.093l-2.517,1.433c.425-.823,1.654-1.285,2.517-1.433Z"/>
  <path d="M564.779,410.699c.119-.937,1.004-2.051,1.793-2.519l-1.793,2.519Z"/>
  <path d="M569.455,405.664c.175.137-.629.953-1.08.713-.175-.137.629-.953,1.08-.713Z"/>
  <path d="M135.618,20.965c1.077,1.035-.294,3.548-2.122,3.33-3.925-.468-.407-5.761,2.122-3.33ZM134.985,22.313c-.126-2.023-2.73-.776-2.521.536.761,1.15,1.382-.898,2.521-.536ZM134.983,22.679h-.533s-.905,1.074-.905,1.074c.663.087,1.058.023,1.436-.542l.002-.533Z"/>
  <path d="M141.713,12.309c.777-.238,2.146-.275,2.609.507.864,1.903-.669,3.34-2.658,3.024-2.006-.319-1.325-3.111.048-3.531ZM143.623,14.035c-.37-2.084-2.455-.967-2.518.529l.712.551c-.079-.995,1-1.013,1.806-1.08ZM143.622,14.4h-.533s-.905,1.074-.905,1.074l1.438-.362v-.712Z"/>
  <path d="M519.421,488.085c-.675.157-.857-.375-1.261-.715-1.881-1.585-3.533-3.609-5.218-5.397.675-.157.857.375,1.261.715,1.881,1.585,3.533,3.609,5.218,5.397Z"/>
  <path d="M496.024,465.768c-.675.157-.857-.375-1.261-.715-1.881-1.585-3.533-3.609-5.218-5.397.675-.157.857.375,1.261.715,1.881,1.585,3.533,3.609,5.218,5.397Z"/>
  <path d="M511.502,480.526c-.675.157-.857-.375-1.261-.715-1.752-1.477-3.299-3.361-4.858-5.037.675-.157.857.375,1.261.715,1.752,1.477,3.299,3.361,4.858,5.037Z"/>
  <path d="M503.583,472.967c-.675.157-.857-.375-1.261-.715-1.752-1.477-3.299-3.361-4.858-5.037.675-.157.857.375,1.261.715,1.752,1.477,3.299,3.361,4.858,5.037Z"/>
  <path d="M583.494,401.337c-.675.157-.857-.375-1.261-.715-1.881-1.585-3.533-3.609-5.218-5.397.675-.157.857.375,1.261.715,1.881,1.585,3.533,3.609,5.218,5.397Z"/>
  <path d="M591.053,408.536c-.675.157-.857-.375-1.261-.715-1.752-1.477-3.299-3.361-4.858-5.037.675-.157.857.375,1.261.715,1.752,1.477,3.299,3.361,4.858,5.037Z"/>
  <path d="M598.972,416.095c-.675.157-.857-.375-1.261-.715-1.752-1.477-3.299-3.361-4.858-5.037.675-.157.857.375,1.261.715,1.752,1.477,3.299,3.361,4.858,5.037Z"/>
  <path d="M575.574,393.779c-.675.157-.857-.375-1.261-.715-1.752-1.477-3.299-3.361-4.858-5.037.675-.157.857.375,1.261.715,1.752,1.477,3.299,3.361,4.858,5.037Z"/>
  <path d="M147.943,152.981c.146.129-1.671,1.942-1.796,1.796-.231-.659,1.411-2.138,1.796-1.796Z"/>
</svg>